%TF.GenerationSoftware,KiCad,Pcbnew,6.0.11+dfsg-1~bpo11+1*%
%TF.CreationDate,2023-03-04T12:32:12-08:00*%
%TF.ProjectId,sx1280_breakout,73783132-3830-45f6-9272-65616b6f7574,rev?*%
%TF.SameCoordinates,Original*%
%TF.FileFunction,Drillmap*%
%TF.FilePolarity,Positive*%
%FSLAX45Y45*%
G04 Gerber Fmt 4.5, Leading zero omitted, Abs format (unit mm)*
G04 Created by KiCad (PCBNEW 6.0.11+dfsg-1~bpo11+1) date 2023-03-04 12:32:12*
%MOMM*%
%LPD*%
G01*
G04 APERTURE LIST*
%ADD10C,0.100000*%
%ADD11C,0.200000*%
%ADD12C,0.320000*%
G04 APERTURE END LIST*
D10*
X12200000Y-12000000D02*
G75*
G03*
X12450000Y-12250000I250000J0D01*
G01*
X15490000Y-12250000D02*
G75*
G03*
X15740000Y-12000000I0J250000D01*
G01*
X15740000Y-9150000D02*
G75*
G03*
X15490000Y-8900000I-250000J0D01*
G01*
X12450000Y-8900000D02*
G75*
G03*
X12200000Y-9150000I0J-250000D01*
G01*
X15740000Y-12000000D02*
X15740000Y-9150000D01*
X12450000Y-12250000D02*
X15490000Y-12250000D01*
X12450000Y-8900000D02*
X15490000Y-8900000D01*
X12200000Y-9150000D02*
X12200000Y-12000000D01*
D11*
D12*
X12290000Y-8990000D02*
X12610000Y-9310000D01*
X12610000Y-8990000D02*
X12290000Y-9310000D01*
X12290000Y-11840000D02*
X12610000Y-12160000D01*
X12610000Y-11840000D02*
X12290000Y-12160000D01*
X15330000Y-8990000D02*
X15650000Y-9310000D01*
X15650000Y-8990000D02*
X15330000Y-9310000D01*
X15330000Y-11840000D02*
X15650000Y-12160000D01*
X15650000Y-11840000D02*
X15330000Y-12160000D01*
D11*
X12452619Y-12565476D02*
X12452619Y-12365476D01*
X12500238Y-12365476D01*
X12528809Y-12375000D01*
X12547857Y-12394048D01*
X12557381Y-12413095D01*
X12566905Y-12451190D01*
X12566905Y-12479762D01*
X12557381Y-12517857D01*
X12547857Y-12536905D01*
X12528809Y-12555952D01*
X12500238Y-12565476D01*
X12452619Y-12565476D01*
X12652619Y-12565476D02*
X12652619Y-12432143D01*
X12652619Y-12470238D02*
X12662143Y-12451190D01*
X12671667Y-12441667D01*
X12690714Y-12432143D01*
X12709762Y-12432143D01*
X12776428Y-12565476D02*
X12776428Y-12432143D01*
X12776428Y-12365476D02*
X12766905Y-12375000D01*
X12776428Y-12384524D01*
X12785952Y-12375000D01*
X12776428Y-12365476D01*
X12776428Y-12384524D01*
X12900238Y-12565476D02*
X12881190Y-12555952D01*
X12871667Y-12536905D01*
X12871667Y-12365476D01*
X13005000Y-12565476D02*
X12985952Y-12555952D01*
X12976428Y-12536905D01*
X12976428Y-12365476D01*
X13233571Y-12565476D02*
X13233571Y-12365476D01*
X13300238Y-12508333D01*
X13366905Y-12365476D01*
X13366905Y-12565476D01*
X13547857Y-12565476D02*
X13547857Y-12460714D01*
X13538333Y-12441667D01*
X13519286Y-12432143D01*
X13481190Y-12432143D01*
X13462143Y-12441667D01*
X13547857Y-12555952D02*
X13528809Y-12565476D01*
X13481190Y-12565476D01*
X13462143Y-12555952D01*
X13452619Y-12536905D01*
X13452619Y-12517857D01*
X13462143Y-12498809D01*
X13481190Y-12489286D01*
X13528809Y-12489286D01*
X13547857Y-12479762D01*
X13643095Y-12432143D02*
X13643095Y-12632143D01*
X13643095Y-12441667D02*
X13662143Y-12432143D01*
X13700238Y-12432143D01*
X13719286Y-12441667D01*
X13728809Y-12451190D01*
X13738333Y-12470238D01*
X13738333Y-12527381D01*
X13728809Y-12546428D01*
X13719286Y-12555952D01*
X13700238Y-12565476D01*
X13662143Y-12565476D01*
X13643095Y-12555952D01*
X13824048Y-12546428D02*
X13833571Y-12555952D01*
X13824048Y-12565476D01*
X13814524Y-12555952D01*
X13824048Y-12546428D01*
X13824048Y-12565476D01*
X13824048Y-12441667D02*
X13833571Y-12451190D01*
X13824048Y-12460714D01*
X13814524Y-12451190D01*
X13824048Y-12441667D01*
X13824048Y-12460714D01*
X11995000Y-12795000D02*
X12195000Y-12995000D01*
X12195000Y-12795000D02*
X11995000Y-12995000D01*
X12433571Y-12785476D02*
X12557381Y-12785476D01*
X12490714Y-12861667D01*
X12519286Y-12861667D01*
X12538333Y-12871190D01*
X12547857Y-12880714D01*
X12557381Y-12899762D01*
X12557381Y-12947381D01*
X12547857Y-12966428D01*
X12538333Y-12975952D01*
X12519286Y-12985476D01*
X12462143Y-12985476D01*
X12443095Y-12975952D01*
X12433571Y-12966428D01*
X12643095Y-12966428D02*
X12652619Y-12975952D01*
X12643095Y-12985476D01*
X12633571Y-12975952D01*
X12643095Y-12966428D01*
X12643095Y-12985476D01*
X12728809Y-12804524D02*
X12738333Y-12795000D01*
X12757381Y-12785476D01*
X12805000Y-12785476D01*
X12824048Y-12795000D01*
X12833571Y-12804524D01*
X12843095Y-12823571D01*
X12843095Y-12842619D01*
X12833571Y-12871190D01*
X12719286Y-12985476D01*
X12843095Y-12985476D01*
X12966905Y-12785476D02*
X12985952Y-12785476D01*
X13005000Y-12795000D01*
X13014524Y-12804524D01*
X13024048Y-12823571D01*
X13033571Y-12861667D01*
X13033571Y-12909286D01*
X13024048Y-12947381D01*
X13014524Y-12966428D01*
X13005000Y-12975952D01*
X12985952Y-12985476D01*
X12966905Y-12985476D01*
X12947857Y-12975952D01*
X12938333Y-12966428D01*
X12928809Y-12947381D01*
X12919286Y-12909286D01*
X12919286Y-12861667D01*
X12928809Y-12823571D01*
X12938333Y-12804524D01*
X12947857Y-12795000D01*
X12966905Y-12785476D01*
X13157381Y-12785476D02*
X13176428Y-12785476D01*
X13195476Y-12795000D01*
X13205000Y-12804524D01*
X13214524Y-12823571D01*
X13224048Y-12861667D01*
X13224048Y-12909286D01*
X13214524Y-12947381D01*
X13205000Y-12966428D01*
X13195476Y-12975952D01*
X13176428Y-12985476D01*
X13157381Y-12985476D01*
X13138333Y-12975952D01*
X13128809Y-12966428D01*
X13119286Y-12947381D01*
X13109762Y-12909286D01*
X13109762Y-12861667D01*
X13119286Y-12823571D01*
X13128809Y-12804524D01*
X13138333Y-12795000D01*
X13157381Y-12785476D01*
X13309762Y-12985476D02*
X13309762Y-12852143D01*
X13309762Y-12871190D02*
X13319286Y-12861667D01*
X13338333Y-12852143D01*
X13366905Y-12852143D01*
X13385952Y-12861667D01*
X13395476Y-12880714D01*
X13395476Y-12985476D01*
X13395476Y-12880714D02*
X13405000Y-12861667D01*
X13424048Y-12852143D01*
X13452619Y-12852143D01*
X13471667Y-12861667D01*
X13481190Y-12880714D01*
X13481190Y-12985476D01*
X13576428Y-12985476D02*
X13576428Y-12852143D01*
X13576428Y-12871190D02*
X13585952Y-12861667D01*
X13605000Y-12852143D01*
X13633571Y-12852143D01*
X13652619Y-12861667D01*
X13662143Y-12880714D01*
X13662143Y-12985476D01*
X13662143Y-12880714D02*
X13671667Y-12861667D01*
X13690714Y-12852143D01*
X13719286Y-12852143D01*
X13738333Y-12861667D01*
X13747857Y-12880714D01*
X13747857Y-12985476D01*
X14138333Y-12775952D02*
X13966905Y-13033095D01*
X14395476Y-12785476D02*
X14414524Y-12785476D01*
X14433571Y-12795000D01*
X14443095Y-12804524D01*
X14452619Y-12823571D01*
X14462143Y-12861667D01*
X14462143Y-12909286D01*
X14452619Y-12947381D01*
X14443095Y-12966428D01*
X14433571Y-12975952D01*
X14414524Y-12985476D01*
X14395476Y-12985476D01*
X14376428Y-12975952D01*
X14366905Y-12966428D01*
X14357381Y-12947381D01*
X14347857Y-12909286D01*
X14347857Y-12861667D01*
X14357381Y-12823571D01*
X14366905Y-12804524D01*
X14376428Y-12795000D01*
X14395476Y-12785476D01*
X14547857Y-12966428D02*
X14557381Y-12975952D01*
X14547857Y-12985476D01*
X14538333Y-12975952D01*
X14547857Y-12966428D01*
X14547857Y-12985476D01*
X14747857Y-12985476D02*
X14633571Y-12985476D01*
X14690714Y-12985476D02*
X14690714Y-12785476D01*
X14671667Y-12814048D01*
X14652619Y-12833095D01*
X14633571Y-12842619D01*
X14824048Y-12804524D02*
X14833571Y-12795000D01*
X14852619Y-12785476D01*
X14900238Y-12785476D01*
X14919286Y-12795000D01*
X14928809Y-12804524D01*
X14938333Y-12823571D01*
X14938333Y-12842619D01*
X14928809Y-12871190D01*
X14814524Y-12985476D01*
X14938333Y-12985476D01*
X15109762Y-12785476D02*
X15071667Y-12785476D01*
X15052619Y-12795000D01*
X15043095Y-12804524D01*
X15024048Y-12833095D01*
X15014524Y-12871190D01*
X15014524Y-12947381D01*
X15024048Y-12966428D01*
X15033571Y-12975952D01*
X15052619Y-12985476D01*
X15090714Y-12985476D01*
X15109762Y-12975952D01*
X15119286Y-12966428D01*
X15128809Y-12947381D01*
X15128809Y-12899762D01*
X15119286Y-12880714D01*
X15109762Y-12871190D01*
X15090714Y-12861667D01*
X15052619Y-12861667D01*
X15033571Y-12871190D01*
X15024048Y-12880714D01*
X15014524Y-12899762D01*
X15252619Y-12785476D02*
X15271667Y-12785476D01*
X15290714Y-12795000D01*
X15300238Y-12804524D01*
X15309762Y-12823571D01*
X15319286Y-12861667D01*
X15319286Y-12909286D01*
X15309762Y-12947381D01*
X15300238Y-12966428D01*
X15290714Y-12975952D01*
X15271667Y-12985476D01*
X15252619Y-12985476D01*
X15233571Y-12975952D01*
X15224048Y-12966428D01*
X15214524Y-12947381D01*
X15205000Y-12909286D01*
X15205000Y-12861667D01*
X15214524Y-12823571D01*
X15224048Y-12804524D01*
X15233571Y-12795000D01*
X15252619Y-12785476D01*
X15395476Y-12785476D02*
X15395476Y-12823571D01*
X15471667Y-12785476D02*
X15471667Y-12823571D01*
X15766905Y-13061667D02*
X15757381Y-13052143D01*
X15738333Y-13023571D01*
X15728809Y-13004524D01*
X15719286Y-12975952D01*
X15709762Y-12928333D01*
X15709762Y-12890238D01*
X15719286Y-12842619D01*
X15728809Y-12814048D01*
X15738333Y-12795000D01*
X15757381Y-12766428D01*
X15766905Y-12756905D01*
X15928809Y-12852143D02*
X15928809Y-12985476D01*
X15881190Y-12775952D02*
X15833571Y-12918809D01*
X15957381Y-12918809D01*
X16185952Y-12985476D02*
X16185952Y-12785476D01*
X16271667Y-12985476D02*
X16271667Y-12880714D01*
X16262143Y-12861667D01*
X16243095Y-12852143D01*
X16214524Y-12852143D01*
X16195476Y-12861667D01*
X16185952Y-12871190D01*
X16395476Y-12985476D02*
X16376428Y-12975952D01*
X16366905Y-12966428D01*
X16357381Y-12947381D01*
X16357381Y-12890238D01*
X16366905Y-12871190D01*
X16376428Y-12861667D01*
X16395476Y-12852143D01*
X16424048Y-12852143D01*
X16443095Y-12861667D01*
X16452619Y-12871190D01*
X16462143Y-12890238D01*
X16462143Y-12947381D01*
X16452619Y-12966428D01*
X16443095Y-12975952D01*
X16424048Y-12985476D01*
X16395476Y-12985476D01*
X16576428Y-12985476D02*
X16557381Y-12975952D01*
X16547857Y-12956905D01*
X16547857Y-12785476D01*
X16728809Y-12975952D02*
X16709762Y-12985476D01*
X16671667Y-12985476D01*
X16652619Y-12975952D01*
X16643095Y-12956905D01*
X16643095Y-12880714D01*
X16652619Y-12861667D01*
X16671667Y-12852143D01*
X16709762Y-12852143D01*
X16728809Y-12861667D01*
X16738333Y-12880714D01*
X16738333Y-12899762D01*
X16643095Y-12918809D01*
X16814524Y-12975952D02*
X16833571Y-12985476D01*
X16871667Y-12985476D01*
X16890714Y-12975952D01*
X16900238Y-12956905D01*
X16900238Y-12947381D01*
X16890714Y-12928333D01*
X16871667Y-12918809D01*
X16843095Y-12918809D01*
X16824048Y-12909286D01*
X16814524Y-12890238D01*
X16814524Y-12880714D01*
X16824048Y-12861667D01*
X16843095Y-12852143D01*
X16871667Y-12852143D01*
X16890714Y-12861667D01*
X16966905Y-13061667D02*
X16976429Y-13052143D01*
X16995476Y-13023571D01*
X17005000Y-13004524D01*
X17014524Y-12975952D01*
X17024048Y-12928333D01*
X17024048Y-12890238D01*
X17014524Y-12842619D01*
X17005000Y-12814048D01*
X16995476Y-12795000D01*
X16976429Y-12766428D01*
X16966905Y-12756905D01*
X17328810Y-13061667D02*
X17319286Y-13052143D01*
X17300238Y-13023571D01*
X17290714Y-13004524D01*
X17281190Y-12975952D01*
X17271667Y-12928333D01*
X17271667Y-12890238D01*
X17281190Y-12842619D01*
X17290714Y-12814048D01*
X17300238Y-12795000D01*
X17319286Y-12766428D01*
X17328810Y-12756905D01*
X17405000Y-12852143D02*
X17405000Y-12985476D01*
X17405000Y-12871190D02*
X17414524Y-12861667D01*
X17433571Y-12852143D01*
X17462143Y-12852143D01*
X17481190Y-12861667D01*
X17490714Y-12880714D01*
X17490714Y-12985476D01*
X17614524Y-12985476D02*
X17595476Y-12975952D01*
X17585952Y-12966428D01*
X17576429Y-12947381D01*
X17576429Y-12890238D01*
X17585952Y-12871190D01*
X17595476Y-12861667D01*
X17614524Y-12852143D01*
X17643095Y-12852143D01*
X17662143Y-12861667D01*
X17671667Y-12871190D01*
X17681190Y-12890238D01*
X17681190Y-12947381D01*
X17671667Y-12966428D01*
X17662143Y-12975952D01*
X17643095Y-12985476D01*
X17614524Y-12985476D01*
X17738333Y-12852143D02*
X17814524Y-12852143D01*
X17766905Y-12785476D02*
X17766905Y-12956905D01*
X17776429Y-12975952D01*
X17795476Y-12985476D01*
X17814524Y-12985476D01*
X18033571Y-12852143D02*
X18033571Y-13052143D01*
X18033571Y-12861667D02*
X18052619Y-12852143D01*
X18090714Y-12852143D01*
X18109762Y-12861667D01*
X18119286Y-12871190D01*
X18128810Y-12890238D01*
X18128810Y-12947381D01*
X18119286Y-12966428D01*
X18109762Y-12975952D01*
X18090714Y-12985476D01*
X18052619Y-12985476D01*
X18033571Y-12975952D01*
X18243095Y-12985476D02*
X18224048Y-12975952D01*
X18214524Y-12956905D01*
X18214524Y-12785476D01*
X18405000Y-12985476D02*
X18405000Y-12880714D01*
X18395476Y-12861667D01*
X18376429Y-12852143D01*
X18338333Y-12852143D01*
X18319286Y-12861667D01*
X18405000Y-12975952D02*
X18385952Y-12985476D01*
X18338333Y-12985476D01*
X18319286Y-12975952D01*
X18309762Y-12956905D01*
X18309762Y-12937857D01*
X18319286Y-12918809D01*
X18338333Y-12909286D01*
X18385952Y-12909286D01*
X18405000Y-12899762D01*
X18471667Y-12852143D02*
X18547857Y-12852143D01*
X18500238Y-12785476D02*
X18500238Y-12956905D01*
X18509762Y-12975952D01*
X18528810Y-12985476D01*
X18547857Y-12985476D01*
X18690714Y-12975952D02*
X18671667Y-12985476D01*
X18633571Y-12985476D01*
X18614524Y-12975952D01*
X18605000Y-12956905D01*
X18605000Y-12880714D01*
X18614524Y-12861667D01*
X18633571Y-12852143D01*
X18671667Y-12852143D01*
X18690714Y-12861667D01*
X18700238Y-12880714D01*
X18700238Y-12899762D01*
X18605000Y-12918809D01*
X18871667Y-12985476D02*
X18871667Y-12785476D01*
X18871667Y-12975952D02*
X18852619Y-12985476D01*
X18814524Y-12985476D01*
X18795476Y-12975952D01*
X18785952Y-12966428D01*
X18776429Y-12947381D01*
X18776429Y-12890238D01*
X18785952Y-12871190D01*
X18795476Y-12861667D01*
X18814524Y-12852143D01*
X18852619Y-12852143D01*
X18871667Y-12861667D01*
X18947857Y-13061667D02*
X18957381Y-13052143D01*
X18976429Y-13023571D01*
X18985952Y-13004524D01*
X18995476Y-12975952D01*
X19005000Y-12928333D01*
X19005000Y-12890238D01*
X18995476Y-12842619D01*
X18985952Y-12814048D01*
X18976429Y-12795000D01*
X18957381Y-12766428D01*
X18947857Y-12756905D01*
M02*
