G04 #@! TF.GenerationSoftware,KiCad,Pcbnew,6.0.11+dfsg-1~bpo11+1*
G04 #@! TF.CreationDate,2023-03-04T12:31:31-08:00*
G04 #@! TF.ProjectId,sx1280_breakout,73783132-3830-45f6-9272-65616b6f7574,rev?*
G04 #@! TF.SameCoordinates,Original*
G04 #@! TF.FileFunction,Copper,L1,Top*
G04 #@! TF.FilePolarity,Positive*
%FSLAX46Y46*%
G04 Gerber Fmt 4.6, Leading zero omitted, Abs format (unit mm)*
G04 Created by KiCad (PCBNEW 6.0.11+dfsg-1~bpo11+1) date 2023-03-04 12:31:31*
%MOMM*%
%LPD*%
G01*
G04 APERTURE LIST*
G04 Aperture macros list*
%AMRoundRect*
0 Rectangle with rounded corners*
0 $1 Rounding radius*
0 $2 $3 $4 $5 $6 $7 $8 $9 X,Y pos of 4 corners*
0 Add a 4 corners polygon primitive as box body*
4,1,4,$2,$3,$4,$5,$6,$7,$8,$9,$2,$3,0*
0 Add four circle primitives for the rounded corners*
1,1,$1+$1,$2,$3*
1,1,$1+$1,$4,$5*
1,1,$1+$1,$6,$7*
1,1,$1+$1,$8,$9*
0 Add four rect primitives between the rounded corners*
20,1,$1+$1,$2,$3,$4,$5,0*
20,1,$1+$1,$4,$5,$6,$7,0*
20,1,$1+$1,$6,$7,$8,$9,0*
20,1,$1+$1,$8,$9,$2,$3,0*%
G04 Aperture macros list end*
G04 #@! TA.AperFunction,SMDPad,CuDef*
%ADD10RoundRect,0.250000X-0.750000X-0.250000X0.750000X-0.250000X0.750000X0.250000X-0.750000X0.250000X0*%
G04 #@! TD*
G04 #@! TA.AperFunction,SMDPad,CuDef*
%ADD11RoundRect,0.237500X-0.237500X0.250000X-0.237500X-0.250000X0.237500X-0.250000X0.237500X0.250000X0*%
G04 #@! TD*
G04 #@! TA.AperFunction,SMDPad,CuDef*
%ADD12RoundRect,0.237500X-0.237500X0.300000X-0.237500X-0.300000X0.237500X-0.300000X0.237500X0.300000X0*%
G04 #@! TD*
G04 #@! TA.AperFunction,ComponentPad*
%ADD13R,1.700000X1.700000*%
G04 #@! TD*
G04 #@! TA.AperFunction,ComponentPad*
%ADD14O,1.700000X1.700000*%
G04 #@! TD*
G04 #@! TA.AperFunction,ViaPad*
%ADD15C,0.800000*%
G04 #@! TD*
G04 #@! TA.AperFunction,Conductor*
%ADD16C,0.250000*%
G04 #@! TD*
G04 APERTURE END LIST*
D10*
X132200000Y-111320000D03*
X132200000Y-112590000D03*
X132200000Y-113860000D03*
X132200000Y-115130000D03*
X132200000Y-116400000D03*
X132200000Y-117670000D03*
X132200000Y-118940000D03*
X147200000Y-118940000D03*
X147200000Y-117670000D03*
X147200000Y-116400000D03*
X147200000Y-115130000D03*
X147200000Y-113860000D03*
X147200000Y-112590000D03*
X147200000Y-111320000D03*
D11*
X128270000Y-106875000D03*
X128270000Y-108700000D03*
D12*
X130175000Y-110685000D03*
X130175000Y-112410000D03*
X128270000Y-110685000D03*
X128270000Y-112410000D03*
D13*
X132080000Y-91000000D03*
D14*
X134620000Y-91000000D03*
X137160000Y-91000000D03*
X139700000Y-91000000D03*
X142240000Y-91000000D03*
X144780000Y-91000000D03*
X147320000Y-91000000D03*
X154940000Y-111320000D03*
X154940000Y-108780000D03*
X154940000Y-106240000D03*
X154940000Y-103700000D03*
X154940000Y-101160000D03*
D13*
X154940000Y-98620000D03*
D15*
X150495000Y-106875000D03*
X134620000Y-106875000D03*
X149225000Y-116400000D03*
X127635000Y-117670000D03*
X127635000Y-98620000D03*
X126365000Y-116400000D03*
X126365000Y-94810000D03*
X125095000Y-96080000D03*
X125095000Y-115130000D03*
X123825000Y-113860000D03*
X123825000Y-97350000D03*
D16*
X147320000Y-91000000D02*
X139700000Y-98620000D01*
X139700000Y-98620000D02*
X127635000Y-98620000D01*
X132200000Y-117670000D02*
X127635000Y-117670000D01*
X132200000Y-113860000D02*
X123825000Y-113860000D01*
X132200000Y-115130000D02*
X125095000Y-115130000D01*
X132200000Y-116400000D02*
X126365000Y-116400000D01*
X137160000Y-91000000D02*
X133350000Y-94810000D01*
X133350000Y-94810000D02*
X126365000Y-94810000D01*
X139700000Y-91000000D02*
X134620000Y-96080000D01*
X134620000Y-96080000D02*
X125095000Y-96080000D01*
X144780000Y-91000000D02*
X138430000Y-97350000D01*
X138430000Y-97350000D02*
X123825000Y-97350000D01*
X130175000Y-112410000D02*
X129995000Y-112590000D01*
X129995000Y-112590000D02*
X128270000Y-112590000D01*
X132200000Y-112590000D02*
X130175000Y-112590000D01*
X132200000Y-111320000D02*
X130810000Y-111320000D01*
X130810000Y-111320000D02*
X130175000Y-110685000D01*
X128270000Y-110685000D02*
X130175000Y-110685000D01*
X128270000Y-108700000D02*
X128270000Y-110685000D01*
X134620000Y-106875000D02*
X150495000Y-106875000D01*
X134620000Y-106875000D02*
X128270000Y-106875000D01*
X147200000Y-112590000D02*
X147743173Y-112590000D01*
X147743173Y-112590000D02*
X151765000Y-108568173D01*
X151765000Y-108568173D02*
X151765000Y-101795000D01*
X151765000Y-101795000D02*
X154940000Y-98620000D01*
X147200000Y-113860000D02*
X147743173Y-113860000D01*
X147743173Y-113860000D02*
X152400000Y-109203173D01*
X152400000Y-109203173D02*
X152400000Y-103700000D01*
X152400000Y-103700000D02*
X154940000Y-101160000D01*
X147200000Y-115130000D02*
X147743173Y-115130000D01*
X147743173Y-115130000D02*
X153035000Y-109838173D01*
X153035000Y-109838173D02*
X153035000Y-105605000D01*
X153035000Y-105605000D02*
X154940000Y-103700000D01*
X147200000Y-117670000D02*
X149860000Y-117670000D01*
X149860000Y-117670000D02*
X153670000Y-113860000D01*
X153670000Y-113860000D02*
X153670000Y-107510000D01*
X153670000Y-107510000D02*
X154940000Y-106240000D01*
X147200000Y-116400000D02*
X149225000Y-116400000D01*
G04 #@! TA.AperFunction,Conductor*
G36*
X130928729Y-89528502D02*
G01*
X130975222Y-89582158D01*
X130985326Y-89652432D01*
X130955832Y-89717012D01*
X130936173Y-89735326D01*
X130874276Y-89781715D01*
X130861715Y-89794276D01*
X130785214Y-89896351D01*
X130776676Y-89911946D01*
X130731522Y-90032394D01*
X130727895Y-90047649D01*
X130722369Y-90098514D01*
X130722000Y-90105328D01*
X130722000Y-90727885D01*
X130726475Y-90743124D01*
X130727865Y-90744329D01*
X130735548Y-90746000D01*
X132208000Y-90746000D01*
X132276121Y-90766002D01*
X132322614Y-90819658D01*
X132334000Y-90872000D01*
X132334000Y-92339884D01*
X132338475Y-92355123D01*
X132339865Y-92356328D01*
X132347548Y-92357999D01*
X132974669Y-92357999D01*
X132981490Y-92357629D01*
X133032352Y-92352105D01*
X133047604Y-92348479D01*
X133168054Y-92303324D01*
X133183649Y-92294786D01*
X133285724Y-92218285D01*
X133298285Y-92205724D01*
X133374786Y-92103649D01*
X133383324Y-92088054D01*
X133424225Y-91978952D01*
X133466867Y-91922188D01*
X133533428Y-91897488D01*
X133602777Y-91912696D01*
X133637444Y-91940684D01*
X133662865Y-91970031D01*
X133662869Y-91970035D01*
X133666250Y-91973938D01*
X133838126Y-92116632D01*
X134031000Y-92229338D01*
X134239692Y-92309030D01*
X134244760Y-92310061D01*
X134244763Y-92310062D01*
X134352017Y-92331883D01*
X134458597Y-92353567D01*
X134463771Y-92353757D01*
X134463773Y-92353757D01*
X134531293Y-92356233D01*
X134605649Y-92358959D01*
X134672990Y-92381443D01*
X134717486Y-92436767D01*
X134725008Y-92507364D01*
X134690126Y-92573969D01*
X133124500Y-94139595D01*
X133062188Y-94173621D01*
X133035405Y-94176500D01*
X127073200Y-94176500D01*
X127005079Y-94156498D01*
X126985853Y-94140157D01*
X126985580Y-94140460D01*
X126980668Y-94136037D01*
X126976253Y-94131134D01*
X126821752Y-94018882D01*
X126815724Y-94016198D01*
X126815722Y-94016197D01*
X126653319Y-93943891D01*
X126653318Y-93943891D01*
X126647288Y-93941206D01*
X126553888Y-93921353D01*
X126466944Y-93902872D01*
X126466939Y-93902872D01*
X126460487Y-93901500D01*
X126269513Y-93901500D01*
X126263061Y-93902872D01*
X126263056Y-93902872D01*
X126176112Y-93921353D01*
X126082712Y-93941206D01*
X126076682Y-93943891D01*
X126076681Y-93943891D01*
X125914278Y-94016197D01*
X125914276Y-94016198D01*
X125908248Y-94018882D01*
X125753747Y-94131134D01*
X125749326Y-94136044D01*
X125749325Y-94136045D01*
X125715492Y-94173621D01*
X125625960Y-94273056D01*
X125530473Y-94438444D01*
X125471458Y-94620072D01*
X125451496Y-94810000D01*
X125471458Y-94999928D01*
X125473498Y-95006206D01*
X125484746Y-95040824D01*
X125486774Y-95111791D01*
X125450111Y-95172589D01*
X125386399Y-95203915D01*
X125338716Y-95203007D01*
X125196944Y-95172872D01*
X125196939Y-95172872D01*
X125190487Y-95171500D01*
X124999513Y-95171500D01*
X124993061Y-95172872D01*
X124993056Y-95172872D01*
X124906113Y-95191353D01*
X124812712Y-95211206D01*
X124806682Y-95213891D01*
X124806681Y-95213891D01*
X124644278Y-95286197D01*
X124644276Y-95286198D01*
X124638248Y-95288882D01*
X124483747Y-95401134D01*
X124479326Y-95406044D01*
X124479325Y-95406045D01*
X124445492Y-95443621D01*
X124355960Y-95543056D01*
X124260473Y-95708444D01*
X124201458Y-95890072D01*
X124181496Y-96080000D01*
X124201458Y-96269928D01*
X124203498Y-96276206D01*
X124214746Y-96310824D01*
X124216774Y-96381791D01*
X124180111Y-96442589D01*
X124116399Y-96473915D01*
X124068716Y-96473007D01*
X123926944Y-96442872D01*
X123926939Y-96442872D01*
X123920487Y-96441500D01*
X123729513Y-96441500D01*
X123723061Y-96442872D01*
X123723056Y-96442872D01*
X123636112Y-96461353D01*
X123542712Y-96481206D01*
X123536682Y-96483891D01*
X123536681Y-96483891D01*
X123374278Y-96556197D01*
X123374276Y-96556198D01*
X123368248Y-96558882D01*
X123213747Y-96671134D01*
X123209326Y-96676044D01*
X123209325Y-96676045D01*
X123175492Y-96713621D01*
X123085960Y-96813056D01*
X122990473Y-96978444D01*
X122931458Y-97160072D01*
X122911496Y-97350000D01*
X122912186Y-97356565D01*
X122930594Y-97531703D01*
X122931458Y-97539928D01*
X122990473Y-97721556D01*
X123085960Y-97886944D01*
X123090378Y-97891851D01*
X123090379Y-97891852D01*
X123176905Y-97987949D01*
X123213747Y-98028866D01*
X123368248Y-98141118D01*
X123374276Y-98143802D01*
X123374278Y-98143803D01*
X123438733Y-98172500D01*
X123542712Y-98218794D01*
X123636112Y-98238647D01*
X123723056Y-98257128D01*
X123723061Y-98257128D01*
X123729513Y-98258500D01*
X123920487Y-98258500D01*
X123926939Y-98257128D01*
X123926944Y-98257128D01*
X124013888Y-98238647D01*
X124107288Y-98218794D01*
X124211267Y-98172500D01*
X124275722Y-98143803D01*
X124275724Y-98143802D01*
X124281752Y-98141118D01*
X124436253Y-98028866D01*
X124440668Y-98023963D01*
X124445580Y-98019540D01*
X124446705Y-98020789D01*
X124500014Y-97987949D01*
X124533200Y-97983500D01*
X126735200Y-97983500D01*
X126803321Y-98003502D01*
X126849814Y-98057158D01*
X126859918Y-98127432D01*
X126844319Y-98172500D01*
X126817591Y-98218794D01*
X126800473Y-98248444D01*
X126741458Y-98430072D01*
X126721496Y-98620000D01*
X126741458Y-98809928D01*
X126800473Y-98991556D01*
X126895960Y-99156944D01*
X126900378Y-99161851D01*
X126900379Y-99161852D01*
X126982452Y-99253003D01*
X127023747Y-99298866D01*
X127178248Y-99411118D01*
X127184276Y-99413802D01*
X127184278Y-99413803D01*
X127346681Y-99486109D01*
X127352712Y-99488794D01*
X127446112Y-99508647D01*
X127533056Y-99527128D01*
X127533061Y-99527128D01*
X127539513Y-99528500D01*
X127730487Y-99528500D01*
X127736939Y-99527128D01*
X127736944Y-99527128D01*
X127823888Y-99508647D01*
X127917288Y-99488794D01*
X127923319Y-99486109D01*
X128085722Y-99413803D01*
X128085724Y-99413802D01*
X128091752Y-99411118D01*
X128246253Y-99298866D01*
X128250668Y-99293963D01*
X128255580Y-99289540D01*
X128256705Y-99290789D01*
X128310014Y-99257949D01*
X128343200Y-99253500D01*
X139621233Y-99253500D01*
X139632416Y-99254027D01*
X139639909Y-99255702D01*
X139647835Y-99255453D01*
X139647836Y-99255453D01*
X139707986Y-99253562D01*
X139711945Y-99253500D01*
X139739856Y-99253500D01*
X139743791Y-99253003D01*
X139743856Y-99252995D01*
X139755693Y-99252062D01*
X139787951Y-99251048D01*
X139791970Y-99250922D01*
X139799889Y-99250673D01*
X139819343Y-99245021D01*
X139838700Y-99241013D01*
X139850930Y-99239468D01*
X139850931Y-99239468D01*
X139858797Y-99238474D01*
X139866168Y-99235555D01*
X139866170Y-99235555D01*
X139899912Y-99222196D01*
X139911142Y-99218351D01*
X139945983Y-99208229D01*
X139945984Y-99208229D01*
X139953593Y-99206018D01*
X139960412Y-99201985D01*
X139960417Y-99201983D01*
X139971028Y-99195707D01*
X139988776Y-99187012D01*
X140007617Y-99179552D01*
X140043387Y-99153564D01*
X140053307Y-99147048D01*
X140084535Y-99128580D01*
X140084538Y-99128578D01*
X140091362Y-99124542D01*
X140105683Y-99110221D01*
X140120717Y-99097380D01*
X140130694Y-99090131D01*
X140137107Y-99085472D01*
X140165298Y-99051395D01*
X140173288Y-99042616D01*
X146864549Y-92351355D01*
X146926861Y-92317329D01*
X146978762Y-92316979D01*
X147158597Y-92353567D01*
X147163772Y-92353757D01*
X147163774Y-92353757D01*
X147376673Y-92361564D01*
X147376677Y-92361564D01*
X147381837Y-92361753D01*
X147386957Y-92361097D01*
X147386959Y-92361097D01*
X147598288Y-92334025D01*
X147598289Y-92334025D01*
X147603416Y-92333368D01*
X147642434Y-92321662D01*
X147812429Y-92270661D01*
X147812434Y-92270659D01*
X147817384Y-92269174D01*
X148017994Y-92170896D01*
X148199860Y-92041173D01*
X148358096Y-91883489D01*
X148488453Y-91702077D01*
X148509320Y-91659857D01*
X148585136Y-91506453D01*
X148585137Y-91506451D01*
X148587430Y-91501811D01*
X148652370Y-91288069D01*
X148681529Y-91066590D01*
X148681676Y-91060594D01*
X148683074Y-91003365D01*
X148683074Y-91003361D01*
X148683156Y-91000000D01*
X148664852Y-90777361D01*
X148610431Y-90560702D01*
X148521354Y-90355840D01*
X148400014Y-90168277D01*
X148249670Y-90003051D01*
X148245619Y-89999852D01*
X148245615Y-89999848D01*
X148078414Y-89867800D01*
X148078410Y-89867798D01*
X148074359Y-89864598D01*
X147878789Y-89756638D01*
X147873624Y-89754809D01*
X147869285Y-89753272D01*
X147811750Y-89711677D01*
X147785835Y-89645579D01*
X147799770Y-89575964D01*
X147849129Y-89524933D01*
X147911347Y-89508500D01*
X153668229Y-89508500D01*
X153736350Y-89528502D01*
X153782843Y-89582158D01*
X153792947Y-89652432D01*
X153763453Y-89717012D01*
X153740680Y-89737587D01*
X153569977Y-89857559D01*
X153554892Y-89871577D01*
X153392325Y-90022644D01*
X153359378Y-90053260D01*
X153177287Y-90275732D01*
X153027073Y-90520858D01*
X153025347Y-90524791D01*
X153025346Y-90524792D01*
X152929505Y-90743124D01*
X152911517Y-90784102D01*
X152910342Y-90788229D01*
X152910341Y-90788230D01*
X152886012Y-90873639D01*
X152832756Y-91060594D01*
X152792249Y-91345216D01*
X152792227Y-91349505D01*
X152792226Y-91349512D01*
X152790765Y-91628417D01*
X152790743Y-91632703D01*
X152791302Y-91636947D01*
X152791302Y-91636951D01*
X152807810Y-91762340D01*
X152828268Y-91917734D01*
X152904129Y-92195036D01*
X152905813Y-92198984D01*
X153007237Y-92436767D01*
X153016923Y-92459476D01*
X153085446Y-92573969D01*
X153142616Y-92669493D01*
X153164561Y-92706161D01*
X153344313Y-92930528D01*
X153552851Y-93128423D01*
X153786317Y-93296186D01*
X153790112Y-93298195D01*
X153790113Y-93298196D01*
X153811869Y-93309715D01*
X154040392Y-93430712D01*
X154310373Y-93529511D01*
X154591264Y-93590755D01*
X154619841Y-93593004D01*
X154814282Y-93608307D01*
X154814291Y-93608307D01*
X154816739Y-93608500D01*
X154972271Y-93608500D01*
X154974407Y-93608354D01*
X154974418Y-93608354D01*
X155182548Y-93594165D01*
X155182554Y-93594164D01*
X155186825Y-93593873D01*
X155191020Y-93593004D01*
X155191022Y-93593004D01*
X155327584Y-93564723D01*
X155468342Y-93535574D01*
X155739343Y-93439607D01*
X155994812Y-93307750D01*
X155998313Y-93305289D01*
X155998317Y-93305287D01*
X156112417Y-93225096D01*
X156230023Y-93142441D01*
X156440622Y-92946740D01*
X156622713Y-92724268D01*
X156624948Y-92720621D01*
X156624960Y-92720604D01*
X156658068Y-92666576D01*
X156710715Y-92618945D01*
X156780757Y-92607338D01*
X156845954Y-92635441D01*
X156885608Y-92694332D01*
X156891500Y-92732411D01*
X156891500Y-118765800D01*
X156871498Y-118833921D01*
X156817842Y-118880414D01*
X156747568Y-118890518D01*
X156682988Y-118861024D01*
X156657384Y-118830507D01*
X156642519Y-118805668D01*
X156635439Y-118793839D01*
X156455687Y-118569472D01*
X156271145Y-118394348D01*
X156250258Y-118374527D01*
X156250255Y-118374525D01*
X156247149Y-118371577D01*
X156057064Y-118234987D01*
X156017172Y-118206321D01*
X156017171Y-118206320D01*
X156013683Y-118203814D01*
X156006618Y-118200073D01*
X155958398Y-118174542D01*
X155759608Y-118069288D01*
X155489627Y-117970489D01*
X155208736Y-117909245D01*
X155177685Y-117906801D01*
X154985718Y-117891693D01*
X154985709Y-117891693D01*
X154983261Y-117891500D01*
X154827729Y-117891500D01*
X154825593Y-117891646D01*
X154825582Y-117891646D01*
X154617452Y-117905835D01*
X154617446Y-117905836D01*
X154613175Y-117906127D01*
X154608980Y-117906996D01*
X154608978Y-117906996D01*
X154472416Y-117935277D01*
X154331658Y-117964426D01*
X154060657Y-118060393D01*
X153805188Y-118192250D01*
X153801687Y-118194711D01*
X153801683Y-118194713D01*
X153719994Y-118252125D01*
X153569977Y-118357559D01*
X153551828Y-118374424D01*
X153371403Y-118542086D01*
X153359378Y-118553260D01*
X153177287Y-118775732D01*
X153027073Y-119020858D01*
X153025347Y-119024791D01*
X153025346Y-119024792D01*
X152949105Y-119198475D01*
X152911517Y-119284102D01*
X152910342Y-119288229D01*
X152910341Y-119288230D01*
X152906699Y-119301016D01*
X152832756Y-119560594D01*
X152792249Y-119845216D01*
X152792227Y-119849505D01*
X152792226Y-119849512D01*
X152790765Y-120128417D01*
X152790743Y-120132703D01*
X152828268Y-120417734D01*
X152904129Y-120695036D01*
X153016923Y-120959476D01*
X153164561Y-121206161D01*
X153344313Y-121430528D01*
X153552851Y-121628423D01*
X153575787Y-121644904D01*
X153740382Y-121763178D01*
X153784030Y-121819172D01*
X153790476Y-121889876D01*
X153757673Y-121952840D01*
X153696037Y-121988074D01*
X153666856Y-121991500D01*
X125731771Y-121991500D01*
X125663650Y-121971498D01*
X125617157Y-121917842D01*
X125607053Y-121847568D01*
X125636547Y-121782988D01*
X125659320Y-121762413D01*
X125830023Y-121642441D01*
X126040622Y-121446740D01*
X126222713Y-121224268D01*
X126372927Y-120979142D01*
X126488483Y-120715898D01*
X126567244Y-120439406D01*
X126607751Y-120154784D01*
X126607845Y-120136951D01*
X126609235Y-119871583D01*
X126609235Y-119871576D01*
X126609257Y-119867297D01*
X126571732Y-119582266D01*
X126495871Y-119304964D01*
X126466922Y-119237095D01*
X130692001Y-119237095D01*
X130692338Y-119243614D01*
X130702257Y-119339206D01*
X130705149Y-119352600D01*
X130756588Y-119506784D01*
X130762761Y-119519962D01*
X130848063Y-119657807D01*
X130857099Y-119669208D01*
X130971829Y-119783739D01*
X130983240Y-119792751D01*
X131121243Y-119877816D01*
X131134424Y-119883963D01*
X131288710Y-119935138D01*
X131302086Y-119938005D01*
X131396438Y-119947672D01*
X131402854Y-119948000D01*
X131927885Y-119948000D01*
X131943124Y-119943525D01*
X131944329Y-119942135D01*
X131946000Y-119934452D01*
X131946000Y-119929884D01*
X132454000Y-119929884D01*
X132458475Y-119945123D01*
X132459865Y-119946328D01*
X132467548Y-119947999D01*
X132997095Y-119947999D01*
X133003614Y-119947662D01*
X133099206Y-119937743D01*
X133112600Y-119934851D01*
X133266784Y-119883412D01*
X133279962Y-119877239D01*
X133417807Y-119791937D01*
X133429208Y-119782901D01*
X133543739Y-119668171D01*
X133552751Y-119656760D01*
X133637816Y-119518757D01*
X133643963Y-119505576D01*
X133695138Y-119351290D01*
X133698005Y-119337914D01*
X133707672Y-119243562D01*
X133708000Y-119237146D01*
X133708000Y-119237095D01*
X145692001Y-119237095D01*
X145692338Y-119243614D01*
X145702257Y-119339206D01*
X145705149Y-119352600D01*
X145756588Y-119506784D01*
X145762761Y-119519962D01*
X145848063Y-119657807D01*
X145857099Y-119669208D01*
X145971829Y-119783739D01*
X145983240Y-119792751D01*
X146121243Y-119877816D01*
X146134424Y-119883963D01*
X146288710Y-119935138D01*
X146302086Y-119938005D01*
X146396438Y-119947672D01*
X146402854Y-119948000D01*
X146927885Y-119948000D01*
X146943124Y-119943525D01*
X146944329Y-119942135D01*
X146946000Y-119934452D01*
X146946000Y-119929884D01*
X147454000Y-119929884D01*
X147458475Y-119945123D01*
X147459865Y-119946328D01*
X147467548Y-119947999D01*
X147997095Y-119947999D01*
X148003614Y-119947662D01*
X148099206Y-119937743D01*
X148112600Y-119934851D01*
X148266784Y-119883412D01*
X148279962Y-119877239D01*
X148417807Y-119791937D01*
X148429208Y-119782901D01*
X148543739Y-119668171D01*
X148552751Y-119656760D01*
X148637816Y-119518757D01*
X148643963Y-119505576D01*
X148695138Y-119351290D01*
X148698005Y-119337914D01*
X148707672Y-119243562D01*
X148708000Y-119237146D01*
X148708000Y-119212115D01*
X148703525Y-119196876D01*
X148702135Y-119195671D01*
X148694452Y-119194000D01*
X147472115Y-119194000D01*
X147456876Y-119198475D01*
X147455671Y-119199865D01*
X147454000Y-119207548D01*
X147454000Y-119929884D01*
X146946000Y-119929884D01*
X146946000Y-119212115D01*
X146941525Y-119196876D01*
X146940135Y-119195671D01*
X146932452Y-119194000D01*
X145710116Y-119194000D01*
X145694877Y-119198475D01*
X145693672Y-119199865D01*
X145692001Y-119207548D01*
X145692001Y-119237095D01*
X133708000Y-119237095D01*
X133708000Y-119212115D01*
X133703525Y-119196876D01*
X133702135Y-119195671D01*
X133694452Y-119194000D01*
X132472115Y-119194000D01*
X132456876Y-119198475D01*
X132455671Y-119199865D01*
X132454000Y-119207548D01*
X132454000Y-119929884D01*
X131946000Y-119929884D01*
X131946000Y-119212115D01*
X131941525Y-119196876D01*
X131940135Y-119195671D01*
X131932452Y-119194000D01*
X130710116Y-119194000D01*
X130694877Y-119198475D01*
X130693672Y-119199865D01*
X130692001Y-119207548D01*
X130692001Y-119237095D01*
X126466922Y-119237095D01*
X126383077Y-119040524D01*
X126277764Y-118864559D01*
X126237643Y-118797521D01*
X126237639Y-118797515D01*
X126235439Y-118793839D01*
X126055687Y-118569472D01*
X125871145Y-118394348D01*
X125850258Y-118374527D01*
X125850255Y-118374525D01*
X125847149Y-118371577D01*
X125657064Y-118234987D01*
X125617172Y-118206321D01*
X125617171Y-118206320D01*
X125613683Y-118203814D01*
X125606618Y-118200073D01*
X125558398Y-118174542D01*
X125359608Y-118069288D01*
X125089627Y-117970489D01*
X124808736Y-117909245D01*
X124777685Y-117906801D01*
X124585718Y-117891693D01*
X124585709Y-117891693D01*
X124583261Y-117891500D01*
X124427729Y-117891500D01*
X124425593Y-117891646D01*
X124425582Y-117891646D01*
X124217452Y-117905835D01*
X124217446Y-117905836D01*
X124213175Y-117906127D01*
X124208980Y-117906996D01*
X124208978Y-117906996D01*
X124072416Y-117935277D01*
X123931658Y-117964426D01*
X123660657Y-118060393D01*
X123405188Y-118192250D01*
X123401687Y-118194711D01*
X123401683Y-118194713D01*
X123319994Y-118252125D01*
X123169977Y-118357559D01*
X123151828Y-118374424D01*
X122971403Y-118542086D01*
X122959378Y-118553260D01*
X122777287Y-118775732D01*
X122775052Y-118779379D01*
X122775040Y-118779396D01*
X122741932Y-118833424D01*
X122689285Y-118881055D01*
X122619243Y-118892662D01*
X122554046Y-118864559D01*
X122514392Y-118805668D01*
X122508500Y-118767589D01*
X122508500Y-113860000D01*
X122911496Y-113860000D01*
X122912186Y-113866565D01*
X122930220Y-114038145D01*
X122931458Y-114049928D01*
X122990473Y-114231556D01*
X123085960Y-114396944D01*
X123090378Y-114401851D01*
X123090379Y-114401852D01*
X123189290Y-114511704D01*
X123213747Y-114538866D01*
X123368248Y-114651118D01*
X123374276Y-114653802D01*
X123374278Y-114653803D01*
X123536681Y-114726109D01*
X123542712Y-114728794D01*
X123636113Y-114748647D01*
X123723056Y-114767128D01*
X123723061Y-114767128D01*
X123729513Y-114768500D01*
X123920487Y-114768500D01*
X123926939Y-114767128D01*
X123926944Y-114767128D01*
X124068716Y-114736993D01*
X124139507Y-114742395D01*
X124196139Y-114785212D01*
X124220633Y-114851850D01*
X124214746Y-114899176D01*
X124201458Y-114940072D01*
X124200768Y-114946633D01*
X124200768Y-114946635D01*
X124183307Y-115112767D01*
X124181496Y-115130000D01*
X124201458Y-115319928D01*
X124260473Y-115501556D01*
X124355960Y-115666944D01*
X124360378Y-115671851D01*
X124360379Y-115671852D01*
X124459290Y-115781704D01*
X124483747Y-115808866D01*
X124638248Y-115921118D01*
X124644276Y-115923802D01*
X124644278Y-115923803D01*
X124806681Y-115996109D01*
X124812712Y-115998794D01*
X124906113Y-116018647D01*
X124993056Y-116037128D01*
X124993061Y-116037128D01*
X124999513Y-116038500D01*
X125190487Y-116038500D01*
X125196939Y-116037128D01*
X125196944Y-116037128D01*
X125338716Y-116006993D01*
X125409507Y-116012395D01*
X125466139Y-116055212D01*
X125490633Y-116121850D01*
X125484746Y-116169176D01*
X125471458Y-116210072D01*
X125451496Y-116400000D01*
X125471458Y-116589928D01*
X125530473Y-116771556D01*
X125625960Y-116936944D01*
X125630378Y-116941851D01*
X125630379Y-116941852D01*
X125729290Y-117051704D01*
X125753747Y-117078866D01*
X125908248Y-117191118D01*
X125914276Y-117193802D01*
X125914278Y-117193803D01*
X126076681Y-117266109D01*
X126082712Y-117268794D01*
X126176113Y-117288647D01*
X126263056Y-117307128D01*
X126263061Y-117307128D01*
X126269513Y-117308500D01*
X126460487Y-117308500D01*
X126466939Y-117307128D01*
X126466944Y-117307128D01*
X126608716Y-117276993D01*
X126679507Y-117282395D01*
X126736139Y-117325212D01*
X126760633Y-117391850D01*
X126754746Y-117439176D01*
X126741458Y-117480072D01*
X126721496Y-117670000D01*
X126741458Y-117859928D01*
X126800473Y-118041556D01*
X126803776Y-118047278D01*
X126803777Y-118047279D01*
X126815753Y-118068022D01*
X126895960Y-118206944D01*
X126900378Y-118211851D01*
X126900379Y-118211852D01*
X126982452Y-118303003D01*
X127023747Y-118348866D01*
X127178248Y-118461118D01*
X127184276Y-118463802D01*
X127184278Y-118463803D01*
X127346681Y-118536109D01*
X127352712Y-118538794D01*
X127446112Y-118558647D01*
X127533056Y-118577128D01*
X127533061Y-118577128D01*
X127539513Y-118578500D01*
X127730487Y-118578500D01*
X127736939Y-118577128D01*
X127736944Y-118577128D01*
X127823888Y-118558647D01*
X127917288Y-118538794D01*
X127923319Y-118536109D01*
X128085722Y-118463803D01*
X128085724Y-118463802D01*
X128091752Y-118461118D01*
X128246253Y-118348866D01*
X128250668Y-118343963D01*
X128255580Y-118339540D01*
X128256705Y-118340789D01*
X128310014Y-118307949D01*
X128343200Y-118303500D01*
X130605019Y-118303500D01*
X130673140Y-118323502D01*
X130719633Y-118377158D01*
X130729737Y-118447432D01*
X130724612Y-118469168D01*
X130704862Y-118528710D01*
X130701995Y-118542086D01*
X130692328Y-118636438D01*
X130692000Y-118642855D01*
X130692000Y-118667885D01*
X130696475Y-118683124D01*
X130697865Y-118684329D01*
X130705548Y-118686000D01*
X133689884Y-118686000D01*
X133705123Y-118681525D01*
X133706328Y-118680135D01*
X133707999Y-118672452D01*
X133707999Y-118642905D01*
X133707662Y-118636386D01*
X133697743Y-118540794D01*
X133694851Y-118527400D01*
X133643411Y-118373212D01*
X133636784Y-118359066D01*
X133626000Y-118288893D01*
X133636690Y-118252365D01*
X133638272Y-118248973D01*
X133642115Y-118242738D01*
X133648035Y-118224890D01*
X133695632Y-118081389D01*
X133695632Y-118081387D01*
X133697797Y-118074861D01*
X133699280Y-118060393D01*
X133708172Y-117973598D01*
X133708500Y-117970400D01*
X133708500Y-117369600D01*
X133708163Y-117366350D01*
X133698238Y-117270692D01*
X133698237Y-117270688D01*
X133697526Y-117263834D01*
X133673266Y-117191118D01*
X133643867Y-117102997D01*
X133643865Y-117102992D01*
X133641550Y-117096054D01*
X133637699Y-117089831D01*
X133637061Y-117088469D01*
X133626278Y-117018296D01*
X133636967Y-116981772D01*
X133638274Y-116978969D01*
X133642115Y-116972738D01*
X133652360Y-116941852D01*
X133695632Y-116811389D01*
X133695632Y-116811387D01*
X133697797Y-116804861D01*
X133701210Y-116771556D01*
X133708172Y-116703598D01*
X133708500Y-116700400D01*
X133708500Y-116099600D01*
X133708163Y-116096350D01*
X133698238Y-116000692D01*
X133698237Y-116000688D01*
X133697526Y-115993834D01*
X133673266Y-115921118D01*
X133643867Y-115832997D01*
X133643865Y-115832992D01*
X133641550Y-115826054D01*
X133637699Y-115819831D01*
X133637061Y-115818469D01*
X133626278Y-115748296D01*
X133636967Y-115711772D01*
X133638274Y-115708969D01*
X133642115Y-115702738D01*
X133652360Y-115671852D01*
X133695632Y-115541389D01*
X133695632Y-115541387D01*
X133697797Y-115534861D01*
X133701210Y-115501556D01*
X133703821Y-115476064D01*
X133708500Y-115430400D01*
X133708500Y-114829600D01*
X133708163Y-114826350D01*
X133698238Y-114730692D01*
X133698237Y-114730688D01*
X133697526Y-114723834D01*
X133673266Y-114651118D01*
X133643867Y-114562997D01*
X133643865Y-114562992D01*
X133641550Y-114556054D01*
X133637699Y-114549831D01*
X133637061Y-114548469D01*
X133626278Y-114478296D01*
X133636967Y-114441772D01*
X133638274Y-114438969D01*
X133642115Y-114432738D01*
X133652360Y-114401852D01*
X133695632Y-114271389D01*
X133695632Y-114271387D01*
X133697797Y-114264861D01*
X133701210Y-114231556D01*
X133708172Y-114163598D01*
X133708500Y-114160400D01*
X133708500Y-113559600D01*
X133708163Y-113556350D01*
X133698238Y-113460692D01*
X133698237Y-113460688D01*
X133697526Y-113453834D01*
X133641550Y-113286054D01*
X133637700Y-113279832D01*
X133636783Y-113277875D01*
X133625999Y-113207702D01*
X133636689Y-113171175D01*
X133643963Y-113155576D01*
X133695138Y-113001290D01*
X133698005Y-112987914D01*
X133707672Y-112893562D01*
X133708000Y-112887146D01*
X133708000Y-112862115D01*
X133703525Y-112846876D01*
X133702135Y-112845671D01*
X133694452Y-112844000D01*
X130778000Y-112844000D01*
X130709879Y-112823998D01*
X130663386Y-112770342D01*
X130652000Y-112718000D01*
X130652000Y-112682115D01*
X130647525Y-112666876D01*
X130646135Y-112665671D01*
X130638452Y-112664000D01*
X127305115Y-112664000D01*
X127289876Y-112668475D01*
X127288671Y-112669865D01*
X127287000Y-112677548D01*
X127287000Y-112756266D01*
X127287337Y-112762782D01*
X127297075Y-112856632D01*
X127299968Y-112870028D01*
X127350488Y-113021453D01*
X127359759Y-113041245D01*
X127358497Y-113041836D01*
X127375232Y-113102653D01*
X127354069Y-113170422D01*
X127299626Y-113215991D01*
X127249250Y-113226500D01*
X124533200Y-113226500D01*
X124465079Y-113206498D01*
X124445853Y-113190157D01*
X124445580Y-113190460D01*
X124440668Y-113186037D01*
X124436253Y-113181134D01*
X124281752Y-113068882D01*
X124275724Y-113066198D01*
X124275722Y-113066197D01*
X124113319Y-112993891D01*
X124113318Y-112993891D01*
X124107288Y-112991206D01*
X124013888Y-112971353D01*
X123926944Y-112952872D01*
X123926939Y-112952872D01*
X123920487Y-112951500D01*
X123729513Y-112951500D01*
X123723061Y-112952872D01*
X123723056Y-112952872D01*
X123636112Y-112971353D01*
X123542712Y-112991206D01*
X123536682Y-112993891D01*
X123536681Y-112993891D01*
X123374278Y-113066197D01*
X123374276Y-113066198D01*
X123368248Y-113068882D01*
X123213747Y-113181134D01*
X123209326Y-113186044D01*
X123209325Y-113186045D01*
X123159210Y-113241704D01*
X123085960Y-113323056D01*
X122990473Y-113488444D01*
X122931458Y-113670072D01*
X122911496Y-113860000D01*
X122508500Y-113860000D01*
X122508500Y-111034572D01*
X127286500Y-111034572D01*
X127286837Y-111037818D01*
X127286837Y-111037822D01*
X127289588Y-111064329D01*
X127297293Y-111138593D01*
X127352346Y-111303607D01*
X127443884Y-111451531D01*
X127449065Y-111456703D01*
X127451139Y-111458773D01*
X127452105Y-111460538D01*
X127453613Y-111462441D01*
X127453287Y-111462699D01*
X127485219Y-111521054D01*
X127480218Y-111591875D01*
X127451292Y-111636970D01*
X127448636Y-111639631D01*
X127439625Y-111651040D01*
X127356088Y-111786563D01*
X127349944Y-111799741D01*
X127299685Y-111951266D01*
X127296819Y-111964632D01*
X127287328Y-112057270D01*
X127287000Y-112063685D01*
X127287000Y-112137885D01*
X127291475Y-112153124D01*
X127292865Y-112154329D01*
X127300548Y-112156000D01*
X130919398Y-112156000D01*
X130985514Y-112174740D01*
X131127262Y-112262115D01*
X131134205Y-112264418D01*
X131138327Y-112266340D01*
X131191612Y-112313257D01*
X131199376Y-112330439D01*
X131203865Y-112334329D01*
X131211548Y-112336000D01*
X133689884Y-112336000D01*
X133705123Y-112331525D01*
X133706328Y-112330135D01*
X133707999Y-112322452D01*
X133707999Y-112292905D01*
X133707662Y-112286386D01*
X133697743Y-112190794D01*
X133694851Y-112177400D01*
X133643411Y-112023212D01*
X133636784Y-112009066D01*
X133626000Y-111938893D01*
X133636690Y-111902365D01*
X133638272Y-111898973D01*
X133642115Y-111892738D01*
X133649785Y-111869614D01*
X133695632Y-111731389D01*
X133695632Y-111731387D01*
X133697797Y-111724861D01*
X133708500Y-111620400D01*
X133708500Y-111047885D01*
X145692000Y-111047885D01*
X145696475Y-111063124D01*
X145697865Y-111064329D01*
X145705548Y-111066000D01*
X146927885Y-111066000D01*
X146943124Y-111061525D01*
X146944329Y-111060135D01*
X146946000Y-111052452D01*
X146946000Y-110330116D01*
X146941525Y-110314877D01*
X146940135Y-110313672D01*
X146932452Y-110312001D01*
X146402905Y-110312001D01*
X146396386Y-110312338D01*
X146300794Y-110322257D01*
X146287400Y-110325149D01*
X146133216Y-110376588D01*
X146120038Y-110382761D01*
X145982193Y-110468063D01*
X145970792Y-110477099D01*
X145856261Y-110591829D01*
X145847249Y-110603240D01*
X145762184Y-110741243D01*
X145756037Y-110754424D01*
X145704862Y-110908710D01*
X145701995Y-110922086D01*
X145692328Y-111016438D01*
X145692000Y-111022855D01*
X145692000Y-111047885D01*
X133708500Y-111047885D01*
X133708500Y-111019600D01*
X133701037Y-110947672D01*
X133698238Y-110920692D01*
X133698237Y-110920688D01*
X133697526Y-110913834D01*
X133641550Y-110746054D01*
X133548478Y-110595652D01*
X133423303Y-110470695D01*
X133417072Y-110466854D01*
X133278968Y-110381725D01*
X133278966Y-110381724D01*
X133272738Y-110377885D01*
X133192995Y-110351436D01*
X133111389Y-110324368D01*
X133111387Y-110324368D01*
X133104861Y-110322203D01*
X133098025Y-110321503D01*
X133098022Y-110321502D01*
X133054969Y-110317091D01*
X133000400Y-110311500D01*
X131399600Y-110311500D01*
X131396354Y-110311837D01*
X131396350Y-110311837D01*
X131300693Y-110321762D01*
X131300690Y-110321763D01*
X131293834Y-110322474D01*
X131293194Y-110322688D01*
X131224789Y-110317693D01*
X131168016Y-110275063D01*
X131148098Y-110231276D01*
X131147707Y-110231407D01*
X131146467Y-110227690D01*
X131146467Y-110227689D01*
X131092654Y-110066393D01*
X131001116Y-109918469D01*
X130995934Y-109913296D01*
X130883184Y-109800742D01*
X130883179Y-109800738D01*
X130878003Y-109795571D01*
X130871772Y-109791730D01*
X130736150Y-109708131D01*
X130736148Y-109708130D01*
X130729920Y-109704291D01*
X130564809Y-109649526D01*
X130557973Y-109648826D01*
X130557970Y-109648825D01*
X130506474Y-109643549D01*
X130462072Y-109639000D01*
X129887928Y-109639000D01*
X129884682Y-109639337D01*
X129884678Y-109639337D01*
X129790765Y-109649081D01*
X129790761Y-109649082D01*
X129783907Y-109649793D01*
X129777371Y-109651974D01*
X129777369Y-109651974D01*
X129686226Y-109682382D01*
X129618893Y-109704846D01*
X129470969Y-109796384D01*
X129465796Y-109801566D01*
X129353242Y-109914316D01*
X129353238Y-109914321D01*
X129348071Y-109919497D01*
X129344230Y-109925728D01*
X129344228Y-109925731D01*
X129329706Y-109949289D01*
X129276933Y-109996782D01*
X129206861Y-110008204D01*
X129141738Y-109979930D01*
X129115306Y-109949479D01*
X129096116Y-109918469D01*
X129090934Y-109913296D01*
X128978184Y-109800742D01*
X128978179Y-109800738D01*
X128973003Y-109795571D01*
X128963386Y-109789643D01*
X128961559Y-109787614D01*
X128961027Y-109787193D01*
X128961099Y-109787102D01*
X128915892Y-109736872D01*
X128903500Y-109682382D01*
X128903500Y-109652464D01*
X128923502Y-109584343D01*
X128963196Y-109545321D01*
X128974031Y-109538616D01*
X129026279Y-109486277D01*
X129091758Y-109420684D01*
X129091762Y-109420679D01*
X129096929Y-109415503D01*
X129182392Y-109276857D01*
X129184369Y-109273650D01*
X129184370Y-109273648D01*
X129188209Y-109267420D01*
X129242974Y-109102309D01*
X129253500Y-108999572D01*
X129253500Y-108400428D01*
X129247824Y-108345720D01*
X129243419Y-108303265D01*
X129243418Y-108303261D01*
X129242707Y-108296407D01*
X129187654Y-108131393D01*
X129096116Y-107983469D01*
X129065210Y-107952617D01*
X128989214Y-107876753D01*
X128955135Y-107814470D01*
X128960138Y-107743650D01*
X128989059Y-107698563D01*
X129091757Y-107595685D01*
X129091761Y-107595680D01*
X129096929Y-107590503D01*
X129110564Y-107568384D01*
X129163336Y-107520891D01*
X129217824Y-107508500D01*
X133911800Y-107508500D01*
X133979921Y-107528502D01*
X133999147Y-107544843D01*
X133999420Y-107544540D01*
X134004332Y-107548963D01*
X134008747Y-107553866D01*
X134014086Y-107557745D01*
X134138036Y-107647800D01*
X134163248Y-107666118D01*
X134169276Y-107668802D01*
X134169278Y-107668803D01*
X134331681Y-107741109D01*
X134337712Y-107743794D01*
X134431113Y-107763647D01*
X134518056Y-107782128D01*
X134518061Y-107782128D01*
X134524513Y-107783500D01*
X134715487Y-107783500D01*
X134721939Y-107782128D01*
X134721944Y-107782128D01*
X134808887Y-107763647D01*
X134902288Y-107743794D01*
X134908319Y-107741109D01*
X135070722Y-107668803D01*
X135070724Y-107668802D01*
X135076752Y-107666118D01*
X135101965Y-107647800D01*
X135225914Y-107557745D01*
X135231253Y-107553866D01*
X135235668Y-107548963D01*
X135240580Y-107544540D01*
X135241705Y-107545789D01*
X135295014Y-107512949D01*
X135328200Y-107508500D01*
X149786800Y-107508500D01*
X149854921Y-107528502D01*
X149874147Y-107544843D01*
X149874420Y-107544540D01*
X149879332Y-107548963D01*
X149883747Y-107553866D01*
X149889086Y-107557745D01*
X150013036Y-107647800D01*
X150038248Y-107666118D01*
X150044276Y-107668802D01*
X150044278Y-107668803D01*
X150206681Y-107741109D01*
X150212712Y-107743794D01*
X150306113Y-107763647D01*
X150393056Y-107782128D01*
X150393061Y-107782128D01*
X150399513Y-107783500D01*
X150590487Y-107783500D01*
X150596939Y-107782128D01*
X150596944Y-107782128D01*
X150683887Y-107763647D01*
X150777288Y-107743794D01*
X150801656Y-107732945D01*
X150951752Y-107666118D01*
X150952677Y-107668196D01*
X151011488Y-107653924D01*
X151078581Y-107677141D01*
X151122472Y-107732945D01*
X151131500Y-107779782D01*
X151131500Y-108253578D01*
X151111498Y-108321699D01*
X151094595Y-108342673D01*
X148772682Y-110664586D01*
X148710370Y-110698612D01*
X148639555Y-110693547D01*
X148582719Y-110651000D01*
X148576443Y-110641794D01*
X148551937Y-110602193D01*
X148542901Y-110590792D01*
X148428171Y-110476261D01*
X148416760Y-110467249D01*
X148278757Y-110382184D01*
X148265576Y-110376037D01*
X148111290Y-110324862D01*
X148097914Y-110321995D01*
X148003562Y-110312328D01*
X147997145Y-110312000D01*
X147472115Y-110312000D01*
X147456876Y-110316475D01*
X147455671Y-110317865D01*
X147454000Y-110325548D01*
X147454000Y-111448000D01*
X147433998Y-111516121D01*
X147380342Y-111562614D01*
X147328000Y-111574000D01*
X145710116Y-111574000D01*
X145694877Y-111578475D01*
X145693672Y-111579865D01*
X145692001Y-111587548D01*
X145692001Y-111617095D01*
X145692338Y-111623614D01*
X145702257Y-111719206D01*
X145705149Y-111732600D01*
X145756589Y-111886788D01*
X145763216Y-111900934D01*
X145774000Y-111971107D01*
X145763310Y-112007635D01*
X145761728Y-112011027D01*
X145757885Y-112017262D01*
X145755579Y-112024213D01*
X145755579Y-112024214D01*
X145749248Y-112043303D01*
X145702203Y-112185139D01*
X145691500Y-112289600D01*
X145691500Y-112890400D01*
X145691837Y-112893646D01*
X145691837Y-112893650D01*
X145701618Y-112987914D01*
X145702474Y-112996166D01*
X145704655Y-113002702D01*
X145704655Y-113002704D01*
X145756133Y-113157003D01*
X145756135Y-113157008D01*
X145758450Y-113163946D01*
X145762301Y-113170169D01*
X145762939Y-113171531D01*
X145773722Y-113241704D01*
X145763033Y-113278228D01*
X145761726Y-113281031D01*
X145757885Y-113287262D01*
X145755581Y-113294210D01*
X145755579Y-113294213D01*
X145744116Y-113328774D01*
X145702203Y-113455139D01*
X145701503Y-113461975D01*
X145701502Y-113461978D01*
X145698147Y-113494729D01*
X145691500Y-113559600D01*
X145691500Y-114160400D01*
X145691837Y-114163646D01*
X145691837Y-114163650D01*
X145699477Y-114237279D01*
X145702474Y-114266166D01*
X145704655Y-114272702D01*
X145704655Y-114272704D01*
X145756133Y-114427003D01*
X145756135Y-114427008D01*
X145758450Y-114433946D01*
X145762301Y-114440169D01*
X145762939Y-114441531D01*
X145773722Y-114511704D01*
X145763033Y-114548228D01*
X145761726Y-114551031D01*
X145757885Y-114557262D01*
X145755581Y-114564210D01*
X145755579Y-114564213D01*
X145725864Y-114653803D01*
X145702203Y-114725139D01*
X145701503Y-114731975D01*
X145701502Y-114731978D01*
X145697901Y-114767128D01*
X145691500Y-114829600D01*
X145691500Y-115430400D01*
X145691837Y-115433646D01*
X145691837Y-115433650D01*
X145699477Y-115507279D01*
X145702474Y-115536166D01*
X145704655Y-115542702D01*
X145704655Y-115542704D01*
X145756133Y-115697003D01*
X145756135Y-115697008D01*
X145758450Y-115703946D01*
X145762301Y-115710169D01*
X145762939Y-115711531D01*
X145773722Y-115781704D01*
X145763033Y-115818228D01*
X145761726Y-115821031D01*
X145757885Y-115827262D01*
X145755581Y-115834210D01*
X145755579Y-115834213D01*
X145725864Y-115923803D01*
X145702203Y-115995139D01*
X145701503Y-116001975D01*
X145701502Y-116001978D01*
X145698147Y-116034729D01*
X145691500Y-116099600D01*
X145691500Y-116700400D01*
X145691837Y-116703646D01*
X145691837Y-116703650D01*
X145699477Y-116777279D01*
X145702474Y-116806166D01*
X145704655Y-116812702D01*
X145704655Y-116812704D01*
X145756133Y-116967003D01*
X145756135Y-116967008D01*
X145758450Y-116973946D01*
X145762301Y-116980169D01*
X145762939Y-116981531D01*
X145773722Y-117051704D01*
X145763033Y-117088228D01*
X145761726Y-117091031D01*
X145757885Y-117097262D01*
X145755581Y-117104210D01*
X145755579Y-117104213D01*
X145725864Y-117193803D01*
X145702203Y-117265139D01*
X145701503Y-117271975D01*
X145701502Y-117271978D01*
X145697901Y-117307128D01*
X145691500Y-117369600D01*
X145691500Y-117970400D01*
X145691837Y-117973646D01*
X145691837Y-117973650D01*
X145699477Y-118047279D01*
X145702474Y-118076166D01*
X145758450Y-118243946D01*
X145762300Y-118250168D01*
X145763217Y-118252125D01*
X145774001Y-118322298D01*
X145763311Y-118358825D01*
X145756037Y-118374424D01*
X145704862Y-118528710D01*
X145701995Y-118542086D01*
X145692328Y-118636438D01*
X145692000Y-118642855D01*
X145692000Y-118667885D01*
X145696475Y-118683124D01*
X145697865Y-118684329D01*
X145705548Y-118686000D01*
X148689884Y-118686000D01*
X148705123Y-118681525D01*
X148706328Y-118680135D01*
X148707999Y-118672452D01*
X148707999Y-118642905D01*
X148707662Y-118636386D01*
X148697743Y-118540794D01*
X148694851Y-118527400D01*
X148675493Y-118469376D01*
X148672909Y-118398426D01*
X148709093Y-118337342D01*
X148772557Y-118305518D01*
X148795017Y-118303500D01*
X149781233Y-118303500D01*
X149792416Y-118304027D01*
X149799909Y-118305702D01*
X149807835Y-118305453D01*
X149807836Y-118305453D01*
X149867986Y-118303562D01*
X149871945Y-118303500D01*
X149899856Y-118303500D01*
X149903791Y-118303003D01*
X149903856Y-118302995D01*
X149915693Y-118302062D01*
X149947951Y-118301048D01*
X149951970Y-118300922D01*
X149959889Y-118300673D01*
X149979343Y-118295021D01*
X149998700Y-118291013D01*
X150010930Y-118289468D01*
X150010931Y-118289468D01*
X150018797Y-118288474D01*
X150026168Y-118285555D01*
X150026170Y-118285555D01*
X150059912Y-118272196D01*
X150071142Y-118268351D01*
X150105983Y-118258229D01*
X150105984Y-118258229D01*
X150113593Y-118256018D01*
X150120412Y-118251985D01*
X150120417Y-118251983D01*
X150131028Y-118245707D01*
X150148776Y-118237012D01*
X150167617Y-118229552D01*
X150203387Y-118203564D01*
X150213307Y-118197048D01*
X150244535Y-118178580D01*
X150244538Y-118178578D01*
X150251362Y-118174542D01*
X150265683Y-118160221D01*
X150280717Y-118147380D01*
X150290694Y-118140131D01*
X150297107Y-118135472D01*
X150325298Y-118101395D01*
X150333288Y-118092616D01*
X154062247Y-114363657D01*
X154070537Y-114356113D01*
X154077018Y-114352000D01*
X154123659Y-114302332D01*
X154126413Y-114299491D01*
X154146135Y-114279769D01*
X154148612Y-114276576D01*
X154156317Y-114267555D01*
X154181159Y-114241100D01*
X154186586Y-114235321D01*
X154192111Y-114225271D01*
X154196346Y-114217568D01*
X154207202Y-114201041D01*
X154214757Y-114191302D01*
X154214758Y-114191300D01*
X154219614Y-114185040D01*
X154237174Y-114144460D01*
X154242391Y-114133812D01*
X154259875Y-114102009D01*
X154259876Y-114102007D01*
X154263695Y-114095060D01*
X154268733Y-114075437D01*
X154275137Y-114056734D01*
X154280033Y-114045420D01*
X154280033Y-114045419D01*
X154283181Y-114038145D01*
X154284420Y-114030322D01*
X154284423Y-114030312D01*
X154290099Y-113994476D01*
X154292505Y-113982856D01*
X154301528Y-113947711D01*
X154301528Y-113947710D01*
X154303500Y-113940030D01*
X154303500Y-113919776D01*
X154305051Y-113900065D01*
X154306980Y-113887886D01*
X154308220Y-113880057D01*
X154304059Y-113836038D01*
X154303500Y-113824181D01*
X154303500Y-112713654D01*
X154323502Y-112645533D01*
X154377158Y-112599040D01*
X154447432Y-112588936D01*
X154474448Y-112595944D01*
X154554996Y-112626702D01*
X154564899Y-112629579D01*
X154668250Y-112650606D01*
X154682299Y-112649410D01*
X154686000Y-112639065D01*
X154686000Y-112638517D01*
X155194000Y-112638517D01*
X155198064Y-112652359D01*
X155211478Y-112654393D01*
X155218184Y-112653534D01*
X155228262Y-112651392D01*
X155432255Y-112590191D01*
X155441842Y-112586433D01*
X155633095Y-112492739D01*
X155641945Y-112487464D01*
X155815328Y-112363792D01*
X155823200Y-112357139D01*
X155974052Y-112206812D01*
X155980730Y-112198965D01*
X156105003Y-112026020D01*
X156110313Y-112017183D01*
X156204670Y-111826267D01*
X156208469Y-111816672D01*
X156270377Y-111612910D01*
X156272555Y-111602837D01*
X156273986Y-111591962D01*
X156271775Y-111577778D01*
X156258617Y-111574000D01*
X155212115Y-111574000D01*
X155196876Y-111578475D01*
X155195671Y-111579865D01*
X155194000Y-111587548D01*
X155194000Y-112638517D01*
X154686000Y-112638517D01*
X154686000Y-111192000D01*
X154706002Y-111123879D01*
X154759658Y-111077386D01*
X154812000Y-111066000D01*
X156258344Y-111066000D01*
X156271875Y-111062027D01*
X156273180Y-111052947D01*
X156231214Y-110885875D01*
X156227894Y-110876124D01*
X156142972Y-110680814D01*
X156138105Y-110671739D01*
X156022426Y-110492926D01*
X156016136Y-110484757D01*
X155872806Y-110327240D01*
X155865273Y-110320215D01*
X155698139Y-110188222D01*
X155689556Y-110182520D01*
X155652602Y-110162120D01*
X155602631Y-110111687D01*
X155587859Y-110042245D01*
X155612975Y-109975839D01*
X155640327Y-109949232D01*
X155683455Y-109918469D01*
X155819860Y-109821173D01*
X155851501Y-109789643D01*
X155974435Y-109667137D01*
X155978096Y-109663489D01*
X155988130Y-109649526D01*
X156105435Y-109486277D01*
X156108453Y-109482077D01*
X156207430Y-109281811D01*
X156272370Y-109068069D01*
X156301529Y-108846590D01*
X156303156Y-108780000D01*
X156284852Y-108557361D01*
X156230431Y-108340702D01*
X156141354Y-108135840D01*
X156042781Y-107983469D01*
X156022822Y-107952617D01*
X156022820Y-107952614D01*
X156020014Y-107948277D01*
X155869670Y-107783051D01*
X155865619Y-107779852D01*
X155865615Y-107779848D01*
X155698414Y-107647800D01*
X155698410Y-107647798D01*
X155694359Y-107644598D01*
X155653053Y-107621796D01*
X155603084Y-107571364D01*
X155588312Y-107501921D01*
X155613428Y-107435516D01*
X155640780Y-107408909D01*
X155684603Y-107377650D01*
X155819860Y-107281173D01*
X155978096Y-107123489D01*
X156108453Y-106942077D01*
X156207430Y-106741811D01*
X156239900Y-106634940D01*
X156270865Y-106533023D01*
X156270865Y-106533021D01*
X156272370Y-106528069D01*
X156301529Y-106306590D01*
X156303156Y-106240000D01*
X156284852Y-106017361D01*
X156230431Y-105800702D01*
X156141354Y-105595840D01*
X156020014Y-105408277D01*
X155869670Y-105243051D01*
X155865619Y-105239852D01*
X155865615Y-105239848D01*
X155698414Y-105107800D01*
X155698410Y-105107798D01*
X155694359Y-105104598D01*
X155653053Y-105081796D01*
X155603084Y-105031364D01*
X155588312Y-104961921D01*
X155613428Y-104895516D01*
X155640780Y-104868909D01*
X155684603Y-104837650D01*
X155819860Y-104741173D01*
X155978096Y-104583489D01*
X156108453Y-104402077D01*
X156207430Y-104201811D01*
X156272370Y-103988069D01*
X156301529Y-103766590D01*
X156303156Y-103700000D01*
X156284852Y-103477361D01*
X156230431Y-103260702D01*
X156141354Y-103055840D01*
X156020014Y-102868277D01*
X155869670Y-102703051D01*
X155865619Y-102699852D01*
X155865615Y-102699848D01*
X155698414Y-102567800D01*
X155698410Y-102567798D01*
X155694359Y-102564598D01*
X155653053Y-102541796D01*
X155603084Y-102491364D01*
X155588312Y-102421921D01*
X155613428Y-102355516D01*
X155640780Y-102328909D01*
X155684603Y-102297650D01*
X155819860Y-102201173D01*
X155978096Y-102043489D01*
X156108453Y-101862077D01*
X156126840Y-101824875D01*
X156205136Y-101666453D01*
X156205137Y-101666451D01*
X156207430Y-101661811D01*
X156272370Y-101448069D01*
X156301529Y-101226590D01*
X156303156Y-101160000D01*
X156284852Y-100937361D01*
X156230431Y-100720702D01*
X156141354Y-100515840D01*
X156020014Y-100328277D01*
X156016532Y-100324450D01*
X155872798Y-100166488D01*
X155841746Y-100102642D01*
X155850141Y-100032143D01*
X155895317Y-99977375D01*
X155921761Y-99963706D01*
X156028297Y-99923767D01*
X156036705Y-99920615D01*
X156153261Y-99833261D01*
X156240615Y-99716705D01*
X156291745Y-99580316D01*
X156298500Y-99518134D01*
X156298500Y-97721866D01*
X156291745Y-97659684D01*
X156240615Y-97523295D01*
X156153261Y-97406739D01*
X156036705Y-97319385D01*
X155900316Y-97268255D01*
X155838134Y-97261500D01*
X154041866Y-97261500D01*
X153979684Y-97268255D01*
X153843295Y-97319385D01*
X153726739Y-97406739D01*
X153639385Y-97523295D01*
X153588255Y-97659684D01*
X153581500Y-97721866D01*
X153581500Y-99030406D01*
X153561498Y-99098527D01*
X153544595Y-99119501D01*
X151372747Y-101291348D01*
X151364461Y-101298888D01*
X151357982Y-101303000D01*
X151352557Y-101308777D01*
X151311357Y-101352651D01*
X151308602Y-101355493D01*
X151288865Y-101375230D01*
X151286385Y-101378427D01*
X151278682Y-101387447D01*
X151248414Y-101419679D01*
X151244595Y-101426625D01*
X151244593Y-101426628D01*
X151238652Y-101437434D01*
X151227801Y-101453953D01*
X151215386Y-101469959D01*
X151212241Y-101477228D01*
X151212238Y-101477232D01*
X151197826Y-101510537D01*
X151192609Y-101521187D01*
X151171305Y-101559940D01*
X151169334Y-101567615D01*
X151169334Y-101567616D01*
X151166267Y-101579562D01*
X151159863Y-101598266D01*
X151151819Y-101616855D01*
X151150580Y-101624678D01*
X151150577Y-101624688D01*
X151144901Y-101660524D01*
X151142495Y-101672144D01*
X151131500Y-101714970D01*
X151131500Y-101735224D01*
X151129949Y-101754934D01*
X151126780Y-101774943D01*
X151127526Y-101782835D01*
X151130941Y-101818961D01*
X151131500Y-101830819D01*
X151131500Y-105970218D01*
X151111498Y-106038339D01*
X151057842Y-106084832D01*
X150987568Y-106094936D01*
X150952270Y-106082718D01*
X150951752Y-106083882D01*
X150783319Y-106008891D01*
X150783318Y-106008891D01*
X150777288Y-106006206D01*
X150683888Y-105986353D01*
X150596944Y-105967872D01*
X150596939Y-105967872D01*
X150590487Y-105966500D01*
X150399513Y-105966500D01*
X150393061Y-105967872D01*
X150393056Y-105967872D01*
X150306112Y-105986353D01*
X150212712Y-106006206D01*
X150206682Y-106008891D01*
X150206681Y-106008891D01*
X150044278Y-106081197D01*
X150044276Y-106081198D01*
X150038248Y-106083882D01*
X150032907Y-106087762D01*
X150032906Y-106087763D01*
X149942708Y-106153296D01*
X149883747Y-106196134D01*
X149879332Y-106201037D01*
X149874420Y-106205460D01*
X149873295Y-106204211D01*
X149819986Y-106237051D01*
X149786800Y-106241500D01*
X135328200Y-106241500D01*
X135260079Y-106221498D01*
X135240853Y-106205157D01*
X135240580Y-106205460D01*
X135235668Y-106201037D01*
X135231253Y-106196134D01*
X135172292Y-106153296D01*
X135082094Y-106087763D01*
X135082093Y-106087762D01*
X135076752Y-106083882D01*
X135070724Y-106081198D01*
X135070722Y-106081197D01*
X134908319Y-106008891D01*
X134908318Y-106008891D01*
X134902288Y-106006206D01*
X134808888Y-105986353D01*
X134721944Y-105967872D01*
X134721939Y-105967872D01*
X134715487Y-105966500D01*
X134524513Y-105966500D01*
X134518061Y-105967872D01*
X134518056Y-105967872D01*
X134431112Y-105986353D01*
X134337712Y-106006206D01*
X134331682Y-106008891D01*
X134331681Y-106008891D01*
X134169278Y-106081197D01*
X134169276Y-106081198D01*
X134163248Y-106083882D01*
X134157907Y-106087762D01*
X134157906Y-106087763D01*
X134067708Y-106153296D01*
X134008747Y-106196134D01*
X134004332Y-106201037D01*
X133999420Y-106205460D01*
X133998295Y-106204211D01*
X133944986Y-106237051D01*
X133911800Y-106241500D01*
X129217699Y-106241500D01*
X129149578Y-106221498D01*
X129110554Y-106181801D01*
X129096116Y-106158469D01*
X129032472Y-106094936D01*
X128978184Y-106040742D01*
X128978179Y-106040738D01*
X128973003Y-106035571D01*
X128929720Y-106008891D01*
X128831150Y-105948131D01*
X128831148Y-105948130D01*
X128824920Y-105944291D01*
X128659809Y-105889526D01*
X128652973Y-105888826D01*
X128652970Y-105888825D01*
X128601474Y-105883549D01*
X128557072Y-105879000D01*
X127982928Y-105879000D01*
X127979682Y-105879337D01*
X127979678Y-105879337D01*
X127885765Y-105889081D01*
X127885761Y-105889082D01*
X127878907Y-105889793D01*
X127872371Y-105891974D01*
X127872369Y-105891974D01*
X127739605Y-105936268D01*
X127713893Y-105944846D01*
X127565969Y-106036384D01*
X127560796Y-106041566D01*
X127448242Y-106154316D01*
X127448238Y-106154321D01*
X127443071Y-106159497D01*
X127439231Y-106165727D01*
X127439230Y-106165728D01*
X127395516Y-106236646D01*
X127351791Y-106307580D01*
X127297026Y-106472691D01*
X127286500Y-106575428D01*
X127286500Y-107174572D01*
X127297293Y-107278593D01*
X127352346Y-107443607D01*
X127443884Y-107591531D01*
X127449066Y-107596704D01*
X127550786Y-107698247D01*
X127584865Y-107760530D01*
X127579862Y-107831350D01*
X127550941Y-107876437D01*
X127448246Y-107979312D01*
X127448242Y-107979317D01*
X127443071Y-107984497D01*
X127439231Y-107990727D01*
X127439230Y-107990728D01*
X127356364Y-108125162D01*
X127351791Y-108132580D01*
X127297026Y-108297691D01*
X127286500Y-108400428D01*
X127286500Y-108999572D01*
X127286837Y-109002818D01*
X127286837Y-109002822D01*
X127293075Y-109062939D01*
X127297293Y-109103593D01*
X127352346Y-109268607D01*
X127443884Y-109416531D01*
X127449066Y-109421704D01*
X127561816Y-109534258D01*
X127561821Y-109534262D01*
X127566997Y-109539429D01*
X127573227Y-109543269D01*
X127573228Y-109543270D01*
X127576614Y-109545357D01*
X127578441Y-109547386D01*
X127578973Y-109547807D01*
X127578901Y-109547898D01*
X127624108Y-109598128D01*
X127636500Y-109652618D01*
X127636500Y-109682536D01*
X127616498Y-109750657D01*
X127576804Y-109789679D01*
X127565969Y-109796384D01*
X127560796Y-109801566D01*
X127448242Y-109914316D01*
X127448238Y-109914321D01*
X127443071Y-109919497D01*
X127439231Y-109925727D01*
X127439230Y-109925728D01*
X127356364Y-110060162D01*
X127351791Y-110067580D01*
X127297026Y-110232691D01*
X127286500Y-110335428D01*
X127286500Y-111034572D01*
X122508500Y-111034572D01*
X122508500Y-92734200D01*
X122528502Y-92666079D01*
X122582158Y-92619586D01*
X122652432Y-92609482D01*
X122717012Y-92638976D01*
X122742615Y-92669492D01*
X122764561Y-92706161D01*
X122944313Y-92930528D01*
X123152851Y-93128423D01*
X123386317Y-93296186D01*
X123390112Y-93298195D01*
X123390113Y-93298196D01*
X123411869Y-93309715D01*
X123640392Y-93430712D01*
X123910373Y-93529511D01*
X124191264Y-93590755D01*
X124219841Y-93593004D01*
X124414282Y-93608307D01*
X124414291Y-93608307D01*
X124416739Y-93608500D01*
X124572271Y-93608500D01*
X124574407Y-93608354D01*
X124574418Y-93608354D01*
X124782548Y-93594165D01*
X124782554Y-93594164D01*
X124786825Y-93593873D01*
X124791020Y-93593004D01*
X124791022Y-93593004D01*
X124927584Y-93564723D01*
X125068342Y-93535574D01*
X125339343Y-93439607D01*
X125594812Y-93307750D01*
X125598313Y-93305289D01*
X125598317Y-93305287D01*
X125712417Y-93225096D01*
X125830023Y-93142441D01*
X126040622Y-92946740D01*
X126222713Y-92724268D01*
X126372927Y-92479142D01*
X126426268Y-92357629D01*
X126486757Y-92219830D01*
X126488483Y-92215898D01*
X126491507Y-92205284D01*
X126558520Y-91970031D01*
X126567244Y-91939406D01*
X126573611Y-91894669D01*
X130722001Y-91894669D01*
X130722371Y-91901490D01*
X130727895Y-91952352D01*
X130731521Y-91967604D01*
X130776676Y-92088054D01*
X130785214Y-92103649D01*
X130861715Y-92205724D01*
X130874276Y-92218285D01*
X130976351Y-92294786D01*
X130991946Y-92303324D01*
X131112394Y-92348478D01*
X131127649Y-92352105D01*
X131178514Y-92357631D01*
X131185328Y-92358000D01*
X131807885Y-92358000D01*
X131823124Y-92353525D01*
X131824329Y-92352135D01*
X131826000Y-92344452D01*
X131826000Y-91272115D01*
X131821525Y-91256876D01*
X131820135Y-91255671D01*
X131812452Y-91254000D01*
X130740116Y-91254000D01*
X130724877Y-91258475D01*
X130723672Y-91259865D01*
X130722001Y-91267548D01*
X130722001Y-91894669D01*
X126573611Y-91894669D01*
X126607751Y-91654784D01*
X126607845Y-91636951D01*
X126609235Y-91371583D01*
X126609235Y-91371576D01*
X126609257Y-91367297D01*
X126598827Y-91288069D01*
X126572292Y-91086522D01*
X126571732Y-91082266D01*
X126495871Y-90804964D01*
X126391684Y-90560702D01*
X126384763Y-90544476D01*
X126384761Y-90544472D01*
X126383077Y-90540524D01*
X126269944Y-90351492D01*
X126237643Y-90297521D01*
X126237640Y-90297517D01*
X126235439Y-90293839D01*
X126055687Y-90069472D01*
X125889689Y-89911946D01*
X125850258Y-89874527D01*
X125850255Y-89874525D01*
X125847149Y-89871577D01*
X125659618Y-89736821D01*
X125615970Y-89680828D01*
X125609524Y-89610124D01*
X125642327Y-89547160D01*
X125703963Y-89511926D01*
X125733144Y-89508500D01*
X130860608Y-89508500D01*
X130928729Y-89528502D01*
G37*
G04 #@! TD.AperFunction*
M02*
