M48
; DRILL file {KiCad 6.0.11+dfsg-1~bpo11+1} date Sat 04 Mar 2023 12:31:59 PM PST
; FORMAT={-:-/ absolute / metric / decimal}
; #@! TF.CreationDate,2023-03-04T12:31:59-08:00
; #@! TF.GenerationSoftware,Kicad,Pcbnew,6.0.11+dfsg-1~bpo11+1
; #@! TF.FileFunction,Plated,1,2,PTH
FMAT,2
METRIC
; #@! TA.AperFunction,Plated,PTH,ViaDrill
T1C0.400
; #@! TA.AperFunction,Plated,PTH,ComponentDrill
T2C1.000
%
G90
G05
T1
X123.825Y-97.35
X123.825Y-113.86
X125.095Y-96.08
X125.095Y-115.13
X126.365Y-94.81
X126.365Y-116.4
X127.635Y-98.62
X127.635Y-117.67
X134.62Y-106.875
X149.225Y-116.4
X150.495Y-106.875
T2
X132.08Y-91.0
X134.62Y-91.0
X137.16Y-91.0
X139.7Y-91.0
X142.24Y-91.0
X144.78Y-91.0
X147.32Y-91.0
X154.94Y-98.62
X154.94Y-101.16
X154.94Y-103.7
X154.94Y-106.24
X154.94Y-108.78
X154.94Y-111.32
T0
M30
