%TF.GenerationSoftware,KiCad,Pcbnew,6.0.11+dfsg-1~bpo11+1*%
%TF.CreationDate,2023-03-04T12:32:12-08:00*%
%TF.ProjectId,sx1280_breakout,73783132-3830-45f6-9272-65616b6f7574,rev?*%
%TF.SameCoordinates,Original*%
%TF.FileFunction,Drillmap*%
%TF.FilePolarity,Positive*%
%FSLAX45Y45*%
G04 Gerber Fmt 4.5, Leading zero omitted, Abs format (unit mm)*
G04 Created by KiCad (PCBNEW 6.0.11+dfsg-1~bpo11+1) date 2023-03-04 12:32:12*
%MOMM*%
%LPD*%
G01*
G04 APERTURE LIST*
%ADD10C,0.100000*%
%ADD11C,0.200000*%
%ADD12C,0.040000*%
G04 APERTURE END LIST*
D10*
X12200000Y-12000000D02*
G75*
G03*
X12450000Y-12250000I250000J0D01*
G01*
X15490000Y-12250000D02*
G75*
G03*
X15740000Y-12000000I0J250000D01*
G01*
X15740000Y-9150000D02*
G75*
G03*
X15490000Y-8900000I-250000J0D01*
G01*
X12450000Y-8900000D02*
G75*
G03*
X12200000Y-9150000I0J-250000D01*
G01*
X15740000Y-12000000D02*
X15740000Y-9150000D01*
X12450000Y-12250000D02*
X15490000Y-12250000D01*
X12450000Y-8900000D02*
X15490000Y-8900000D01*
X12200000Y-9150000D02*
X12200000Y-12000000D01*
D11*
D12*
X12362500Y-9715000D02*
X12402500Y-9755000D01*
X12402500Y-9715000D02*
X12362500Y-9755000D01*
X12362500Y-11366000D02*
X12402500Y-11406000D01*
X12402500Y-11366000D02*
X12362500Y-11406000D01*
X12489500Y-9588000D02*
X12529500Y-9628000D01*
X12529500Y-9588000D02*
X12489500Y-9628000D01*
X12489500Y-11493000D02*
X12529500Y-11533000D01*
X12529500Y-11493000D02*
X12489500Y-11533000D01*
X12616500Y-9461000D02*
X12656500Y-9501000D01*
X12656500Y-9461000D02*
X12616500Y-9501000D01*
X12616500Y-11620000D02*
X12656500Y-11660000D01*
X12656500Y-11620000D02*
X12616500Y-11660000D01*
X12743500Y-9842000D02*
X12783500Y-9882000D01*
X12783500Y-9842000D02*
X12743500Y-9882000D01*
X12743500Y-11747000D02*
X12783500Y-11787000D01*
X12783500Y-11747000D02*
X12743500Y-11787000D01*
X13442000Y-10667500D02*
X13482000Y-10707500D01*
X13482000Y-10667500D02*
X13442000Y-10707500D01*
X14902500Y-11620000D02*
X14942500Y-11660000D01*
X14942500Y-11620000D02*
X14902500Y-11660000D01*
X15029500Y-10667500D02*
X15069500Y-10707500D01*
X15069500Y-10667500D02*
X15029500Y-10707500D01*
D10*
X13258000Y-9100000D02*
G75*
G03*
X13258000Y-9100000I-50000J0D01*
G01*
X13512000Y-9100000D02*
G75*
G03*
X13512000Y-9100000I-50000J0D01*
G01*
X13766000Y-9100000D02*
G75*
G03*
X13766000Y-9100000I-50000J0D01*
G01*
X14020000Y-9100000D02*
G75*
G03*
X14020000Y-9100000I-50000J0D01*
G01*
X14274000Y-9100000D02*
G75*
G03*
X14274000Y-9100000I-50000J0D01*
G01*
X14528000Y-9100000D02*
G75*
G03*
X14528000Y-9100000I-50000J0D01*
G01*
X14782000Y-9100000D02*
G75*
G03*
X14782000Y-9100000I-50000J0D01*
G01*
X15544000Y-9862000D02*
G75*
G03*
X15544000Y-9862000I-50000J0D01*
G01*
X15544000Y-10116000D02*
G75*
G03*
X15544000Y-10116000I-50000J0D01*
G01*
X15544000Y-10370000D02*
G75*
G03*
X15544000Y-10370000I-50000J0D01*
G01*
X15544000Y-10624000D02*
G75*
G03*
X15544000Y-10624000I-50000J0D01*
G01*
X15544000Y-10878000D02*
G75*
G03*
X15544000Y-10878000I-50000J0D01*
G01*
X15544000Y-11132000D02*
G75*
G03*
X15544000Y-11132000I-50000J0D01*
G01*
D11*
X12452619Y-12565476D02*
X12452619Y-12365476D01*
X12500238Y-12365476D01*
X12528809Y-12375000D01*
X12547857Y-12394048D01*
X12557381Y-12413095D01*
X12566905Y-12451190D01*
X12566905Y-12479762D01*
X12557381Y-12517857D01*
X12547857Y-12536905D01*
X12528809Y-12555952D01*
X12500238Y-12565476D01*
X12452619Y-12565476D01*
X12652619Y-12565476D02*
X12652619Y-12432143D01*
X12652619Y-12470238D02*
X12662143Y-12451190D01*
X12671667Y-12441667D01*
X12690714Y-12432143D01*
X12709762Y-12432143D01*
X12776428Y-12565476D02*
X12776428Y-12432143D01*
X12776428Y-12365476D02*
X12766905Y-12375000D01*
X12776428Y-12384524D01*
X12785952Y-12375000D01*
X12776428Y-12365476D01*
X12776428Y-12384524D01*
X12900238Y-12565476D02*
X12881190Y-12555952D01*
X12871667Y-12536905D01*
X12871667Y-12365476D01*
X13005000Y-12565476D02*
X12985952Y-12555952D01*
X12976428Y-12536905D01*
X12976428Y-12365476D01*
X13233571Y-12565476D02*
X13233571Y-12365476D01*
X13300238Y-12508333D01*
X13366905Y-12365476D01*
X13366905Y-12565476D01*
X13547857Y-12565476D02*
X13547857Y-12460714D01*
X13538333Y-12441667D01*
X13519286Y-12432143D01*
X13481190Y-12432143D01*
X13462143Y-12441667D01*
X13547857Y-12555952D02*
X13528809Y-12565476D01*
X13481190Y-12565476D01*
X13462143Y-12555952D01*
X13452619Y-12536905D01*
X13452619Y-12517857D01*
X13462143Y-12498809D01*
X13481190Y-12489286D01*
X13528809Y-12489286D01*
X13547857Y-12479762D01*
X13643095Y-12432143D02*
X13643095Y-12632143D01*
X13643095Y-12441667D02*
X13662143Y-12432143D01*
X13700238Y-12432143D01*
X13719286Y-12441667D01*
X13728809Y-12451190D01*
X13738333Y-12470238D01*
X13738333Y-12527381D01*
X13728809Y-12546428D01*
X13719286Y-12555952D01*
X13700238Y-12565476D01*
X13662143Y-12565476D01*
X13643095Y-12555952D01*
X13824048Y-12546428D02*
X13833571Y-12555952D01*
X13824048Y-12565476D01*
X13814524Y-12555952D01*
X13824048Y-12546428D01*
X13824048Y-12565476D01*
X13824048Y-12441667D02*
X13833571Y-12451190D01*
X13824048Y-12460714D01*
X13814524Y-12451190D01*
X13824048Y-12441667D01*
X13824048Y-12460714D01*
D12*
X12155000Y-12875000D02*
X12195000Y-12915000D01*
X12195000Y-12875000D02*
X12155000Y-12915000D01*
D11*
X12490714Y-12785476D02*
X12509762Y-12785476D01*
X12528809Y-12795000D01*
X12538333Y-12804524D01*
X12547857Y-12823571D01*
X12557381Y-12861667D01*
X12557381Y-12909286D01*
X12547857Y-12947381D01*
X12538333Y-12966428D01*
X12528809Y-12975952D01*
X12509762Y-12985476D01*
X12490714Y-12985476D01*
X12471667Y-12975952D01*
X12462143Y-12966428D01*
X12452619Y-12947381D01*
X12443095Y-12909286D01*
X12443095Y-12861667D01*
X12452619Y-12823571D01*
X12462143Y-12804524D01*
X12471667Y-12795000D01*
X12490714Y-12785476D01*
X12643095Y-12966428D02*
X12652619Y-12975952D01*
X12643095Y-12985476D01*
X12633571Y-12975952D01*
X12643095Y-12966428D01*
X12643095Y-12985476D01*
X12824048Y-12852143D02*
X12824048Y-12985476D01*
X12776428Y-12775952D02*
X12728809Y-12918809D01*
X12852619Y-12918809D01*
X12966905Y-12785476D02*
X12985952Y-12785476D01*
X13005000Y-12795000D01*
X13014524Y-12804524D01*
X13024048Y-12823571D01*
X13033571Y-12861667D01*
X13033571Y-12909286D01*
X13024048Y-12947381D01*
X13014524Y-12966428D01*
X13005000Y-12975952D01*
X12985952Y-12985476D01*
X12966905Y-12985476D01*
X12947857Y-12975952D01*
X12938333Y-12966428D01*
X12928809Y-12947381D01*
X12919286Y-12909286D01*
X12919286Y-12861667D01*
X12928809Y-12823571D01*
X12938333Y-12804524D01*
X12947857Y-12795000D01*
X12966905Y-12785476D01*
X13157381Y-12785476D02*
X13176428Y-12785476D01*
X13195476Y-12795000D01*
X13205000Y-12804524D01*
X13214524Y-12823571D01*
X13224048Y-12861667D01*
X13224048Y-12909286D01*
X13214524Y-12947381D01*
X13205000Y-12966428D01*
X13195476Y-12975952D01*
X13176428Y-12985476D01*
X13157381Y-12985476D01*
X13138333Y-12975952D01*
X13128809Y-12966428D01*
X13119286Y-12947381D01*
X13109762Y-12909286D01*
X13109762Y-12861667D01*
X13119286Y-12823571D01*
X13128809Y-12804524D01*
X13138333Y-12795000D01*
X13157381Y-12785476D01*
X13309762Y-12985476D02*
X13309762Y-12852143D01*
X13309762Y-12871190D02*
X13319286Y-12861667D01*
X13338333Y-12852143D01*
X13366905Y-12852143D01*
X13385952Y-12861667D01*
X13395476Y-12880714D01*
X13395476Y-12985476D01*
X13395476Y-12880714D02*
X13405000Y-12861667D01*
X13424048Y-12852143D01*
X13452619Y-12852143D01*
X13471667Y-12861667D01*
X13481190Y-12880714D01*
X13481190Y-12985476D01*
X13576428Y-12985476D02*
X13576428Y-12852143D01*
X13576428Y-12871190D02*
X13585952Y-12861667D01*
X13605000Y-12852143D01*
X13633571Y-12852143D01*
X13652619Y-12861667D01*
X13662143Y-12880714D01*
X13662143Y-12985476D01*
X13662143Y-12880714D02*
X13671667Y-12861667D01*
X13690714Y-12852143D01*
X13719286Y-12852143D01*
X13738333Y-12861667D01*
X13747857Y-12880714D01*
X13747857Y-12985476D01*
X14138333Y-12775952D02*
X13966905Y-13033095D01*
X14395476Y-12785476D02*
X14414524Y-12785476D01*
X14433571Y-12795000D01*
X14443095Y-12804524D01*
X14452619Y-12823571D01*
X14462143Y-12861667D01*
X14462143Y-12909286D01*
X14452619Y-12947381D01*
X14443095Y-12966428D01*
X14433571Y-12975952D01*
X14414524Y-12985476D01*
X14395476Y-12985476D01*
X14376428Y-12975952D01*
X14366905Y-12966428D01*
X14357381Y-12947381D01*
X14347857Y-12909286D01*
X14347857Y-12861667D01*
X14357381Y-12823571D01*
X14366905Y-12804524D01*
X14376428Y-12795000D01*
X14395476Y-12785476D01*
X14547857Y-12966428D02*
X14557381Y-12975952D01*
X14547857Y-12985476D01*
X14538333Y-12975952D01*
X14547857Y-12966428D01*
X14547857Y-12985476D01*
X14681190Y-12785476D02*
X14700238Y-12785476D01*
X14719286Y-12795000D01*
X14728809Y-12804524D01*
X14738333Y-12823571D01*
X14747857Y-12861667D01*
X14747857Y-12909286D01*
X14738333Y-12947381D01*
X14728809Y-12966428D01*
X14719286Y-12975952D01*
X14700238Y-12985476D01*
X14681190Y-12985476D01*
X14662143Y-12975952D01*
X14652619Y-12966428D01*
X14643095Y-12947381D01*
X14633571Y-12909286D01*
X14633571Y-12861667D01*
X14643095Y-12823571D01*
X14652619Y-12804524D01*
X14662143Y-12795000D01*
X14681190Y-12785476D01*
X14938333Y-12985476D02*
X14824048Y-12985476D01*
X14881190Y-12985476D02*
X14881190Y-12785476D01*
X14862143Y-12814048D01*
X14843095Y-12833095D01*
X14824048Y-12842619D01*
X15119286Y-12785476D02*
X15024048Y-12785476D01*
X15014524Y-12880714D01*
X15024048Y-12871190D01*
X15043095Y-12861667D01*
X15090714Y-12861667D01*
X15109762Y-12871190D01*
X15119286Y-12880714D01*
X15128809Y-12899762D01*
X15128809Y-12947381D01*
X15119286Y-12966428D01*
X15109762Y-12975952D01*
X15090714Y-12985476D01*
X15043095Y-12985476D01*
X15024048Y-12975952D01*
X15014524Y-12966428D01*
X15195476Y-12785476D02*
X15328809Y-12785476D01*
X15243095Y-12985476D01*
X15395476Y-12785476D02*
X15395476Y-12823571D01*
X15471667Y-12785476D02*
X15471667Y-12823571D01*
X15766905Y-13061667D02*
X15757381Y-13052143D01*
X15738333Y-13023571D01*
X15728809Y-13004524D01*
X15719286Y-12975952D01*
X15709762Y-12928333D01*
X15709762Y-12890238D01*
X15719286Y-12842619D01*
X15728809Y-12814048D01*
X15738333Y-12795000D01*
X15757381Y-12766428D01*
X15766905Y-12756905D01*
X15947857Y-12985476D02*
X15833571Y-12985476D01*
X15890714Y-12985476D02*
X15890714Y-12785476D01*
X15871667Y-12814048D01*
X15852619Y-12833095D01*
X15833571Y-12842619D01*
X16138333Y-12985476D02*
X16024048Y-12985476D01*
X16081190Y-12985476D02*
X16081190Y-12785476D01*
X16062143Y-12814048D01*
X16043095Y-12833095D01*
X16024048Y-12842619D01*
X16376428Y-12985476D02*
X16376428Y-12785476D01*
X16462143Y-12985476D02*
X16462143Y-12880714D01*
X16452619Y-12861667D01*
X16433571Y-12852143D01*
X16405000Y-12852143D01*
X16385952Y-12861667D01*
X16376428Y-12871190D01*
X16585952Y-12985476D02*
X16566905Y-12975952D01*
X16557381Y-12966428D01*
X16547857Y-12947381D01*
X16547857Y-12890238D01*
X16557381Y-12871190D01*
X16566905Y-12861667D01*
X16585952Y-12852143D01*
X16614524Y-12852143D01*
X16633571Y-12861667D01*
X16643095Y-12871190D01*
X16652619Y-12890238D01*
X16652619Y-12947381D01*
X16643095Y-12966428D01*
X16633571Y-12975952D01*
X16614524Y-12985476D01*
X16585952Y-12985476D01*
X16766905Y-12985476D02*
X16747857Y-12975952D01*
X16738333Y-12956905D01*
X16738333Y-12785476D01*
X16919286Y-12975952D02*
X16900238Y-12985476D01*
X16862143Y-12985476D01*
X16843095Y-12975952D01*
X16833571Y-12956905D01*
X16833571Y-12880714D01*
X16843095Y-12861667D01*
X16862143Y-12852143D01*
X16900238Y-12852143D01*
X16919286Y-12861667D01*
X16928810Y-12880714D01*
X16928810Y-12899762D01*
X16833571Y-12918809D01*
X17005000Y-12975952D02*
X17024048Y-12985476D01*
X17062143Y-12985476D01*
X17081190Y-12975952D01*
X17090714Y-12956905D01*
X17090714Y-12947381D01*
X17081190Y-12928333D01*
X17062143Y-12918809D01*
X17033571Y-12918809D01*
X17014524Y-12909286D01*
X17005000Y-12890238D01*
X17005000Y-12880714D01*
X17014524Y-12861667D01*
X17033571Y-12852143D01*
X17062143Y-12852143D01*
X17081190Y-12861667D01*
X17157381Y-13061667D02*
X17166905Y-13052143D01*
X17185952Y-13023571D01*
X17195476Y-13004524D01*
X17205000Y-12975952D01*
X17214524Y-12928333D01*
X17214524Y-12890238D01*
X17205000Y-12842619D01*
X17195476Y-12814048D01*
X17185952Y-12795000D01*
X17166905Y-12766428D01*
X17157381Y-12756905D01*
D10*
X12195000Y-13159000D02*
G75*
G03*
X12195000Y-13159000I-50000J0D01*
G01*
D11*
X12557381Y-13249476D02*
X12443095Y-13249476D01*
X12500238Y-13249476D02*
X12500238Y-13049476D01*
X12481190Y-13078048D01*
X12462143Y-13097095D01*
X12443095Y-13106619D01*
X12643095Y-13230428D02*
X12652619Y-13239952D01*
X12643095Y-13249476D01*
X12633571Y-13239952D01*
X12643095Y-13230428D01*
X12643095Y-13249476D01*
X12776428Y-13049476D02*
X12795476Y-13049476D01*
X12814524Y-13059000D01*
X12824048Y-13068524D01*
X12833571Y-13087571D01*
X12843095Y-13125667D01*
X12843095Y-13173286D01*
X12833571Y-13211381D01*
X12824048Y-13230428D01*
X12814524Y-13239952D01*
X12795476Y-13249476D01*
X12776428Y-13249476D01*
X12757381Y-13239952D01*
X12747857Y-13230428D01*
X12738333Y-13211381D01*
X12728809Y-13173286D01*
X12728809Y-13125667D01*
X12738333Y-13087571D01*
X12747857Y-13068524D01*
X12757381Y-13059000D01*
X12776428Y-13049476D01*
X12966905Y-13049476D02*
X12985952Y-13049476D01*
X13005000Y-13059000D01*
X13014524Y-13068524D01*
X13024048Y-13087571D01*
X13033571Y-13125667D01*
X13033571Y-13173286D01*
X13024048Y-13211381D01*
X13014524Y-13230428D01*
X13005000Y-13239952D01*
X12985952Y-13249476D01*
X12966905Y-13249476D01*
X12947857Y-13239952D01*
X12938333Y-13230428D01*
X12928809Y-13211381D01*
X12919286Y-13173286D01*
X12919286Y-13125667D01*
X12928809Y-13087571D01*
X12938333Y-13068524D01*
X12947857Y-13059000D01*
X12966905Y-13049476D01*
X13157381Y-13049476D02*
X13176428Y-13049476D01*
X13195476Y-13059000D01*
X13205000Y-13068524D01*
X13214524Y-13087571D01*
X13224048Y-13125667D01*
X13224048Y-13173286D01*
X13214524Y-13211381D01*
X13205000Y-13230428D01*
X13195476Y-13239952D01*
X13176428Y-13249476D01*
X13157381Y-13249476D01*
X13138333Y-13239952D01*
X13128809Y-13230428D01*
X13119286Y-13211381D01*
X13109762Y-13173286D01*
X13109762Y-13125667D01*
X13119286Y-13087571D01*
X13128809Y-13068524D01*
X13138333Y-13059000D01*
X13157381Y-13049476D01*
X13309762Y-13249476D02*
X13309762Y-13116143D01*
X13309762Y-13135190D02*
X13319286Y-13125667D01*
X13338333Y-13116143D01*
X13366905Y-13116143D01*
X13385952Y-13125667D01*
X13395476Y-13144714D01*
X13395476Y-13249476D01*
X13395476Y-13144714D02*
X13405000Y-13125667D01*
X13424048Y-13116143D01*
X13452619Y-13116143D01*
X13471667Y-13125667D01*
X13481190Y-13144714D01*
X13481190Y-13249476D01*
X13576428Y-13249476D02*
X13576428Y-13116143D01*
X13576428Y-13135190D02*
X13585952Y-13125667D01*
X13605000Y-13116143D01*
X13633571Y-13116143D01*
X13652619Y-13125667D01*
X13662143Y-13144714D01*
X13662143Y-13249476D01*
X13662143Y-13144714D02*
X13671667Y-13125667D01*
X13690714Y-13116143D01*
X13719286Y-13116143D01*
X13738333Y-13125667D01*
X13747857Y-13144714D01*
X13747857Y-13249476D01*
X14138333Y-13039952D02*
X13966905Y-13297095D01*
X14395476Y-13049476D02*
X14414524Y-13049476D01*
X14433571Y-13059000D01*
X14443095Y-13068524D01*
X14452619Y-13087571D01*
X14462143Y-13125667D01*
X14462143Y-13173286D01*
X14452619Y-13211381D01*
X14443095Y-13230428D01*
X14433571Y-13239952D01*
X14414524Y-13249476D01*
X14395476Y-13249476D01*
X14376428Y-13239952D01*
X14366905Y-13230428D01*
X14357381Y-13211381D01*
X14347857Y-13173286D01*
X14347857Y-13125667D01*
X14357381Y-13087571D01*
X14366905Y-13068524D01*
X14376428Y-13059000D01*
X14395476Y-13049476D01*
X14547857Y-13230428D02*
X14557381Y-13239952D01*
X14547857Y-13249476D01*
X14538333Y-13239952D01*
X14547857Y-13230428D01*
X14547857Y-13249476D01*
X14681190Y-13049476D02*
X14700238Y-13049476D01*
X14719286Y-13059000D01*
X14728809Y-13068524D01*
X14738333Y-13087571D01*
X14747857Y-13125667D01*
X14747857Y-13173286D01*
X14738333Y-13211381D01*
X14728809Y-13230428D01*
X14719286Y-13239952D01*
X14700238Y-13249476D01*
X14681190Y-13249476D01*
X14662143Y-13239952D01*
X14652619Y-13230428D01*
X14643095Y-13211381D01*
X14633571Y-13173286D01*
X14633571Y-13125667D01*
X14643095Y-13087571D01*
X14652619Y-13068524D01*
X14662143Y-13059000D01*
X14681190Y-13049476D01*
X14814524Y-13049476D02*
X14938333Y-13049476D01*
X14871667Y-13125667D01*
X14900238Y-13125667D01*
X14919286Y-13135190D01*
X14928809Y-13144714D01*
X14938333Y-13163762D01*
X14938333Y-13211381D01*
X14928809Y-13230428D01*
X14919286Y-13239952D01*
X14900238Y-13249476D01*
X14843095Y-13249476D01*
X14824048Y-13239952D01*
X14814524Y-13230428D01*
X15033571Y-13249476D02*
X15071667Y-13249476D01*
X15090714Y-13239952D01*
X15100238Y-13230428D01*
X15119286Y-13201857D01*
X15128809Y-13163762D01*
X15128809Y-13087571D01*
X15119286Y-13068524D01*
X15109762Y-13059000D01*
X15090714Y-13049476D01*
X15052619Y-13049476D01*
X15033571Y-13059000D01*
X15024048Y-13068524D01*
X15014524Y-13087571D01*
X15014524Y-13135190D01*
X15024048Y-13154238D01*
X15033571Y-13163762D01*
X15052619Y-13173286D01*
X15090714Y-13173286D01*
X15109762Y-13163762D01*
X15119286Y-13154238D01*
X15128809Y-13135190D01*
X15300238Y-13116143D02*
X15300238Y-13249476D01*
X15252619Y-13039952D02*
X15205000Y-13182809D01*
X15328809Y-13182809D01*
X15395476Y-13049476D02*
X15395476Y-13087571D01*
X15471667Y-13049476D02*
X15471667Y-13087571D01*
X15766905Y-13325667D02*
X15757381Y-13316143D01*
X15738333Y-13287571D01*
X15728809Y-13268524D01*
X15719286Y-13239952D01*
X15709762Y-13192333D01*
X15709762Y-13154238D01*
X15719286Y-13106619D01*
X15728809Y-13078048D01*
X15738333Y-13059000D01*
X15757381Y-13030428D01*
X15766905Y-13020905D01*
X15947857Y-13249476D02*
X15833571Y-13249476D01*
X15890714Y-13249476D02*
X15890714Y-13049476D01*
X15871667Y-13078048D01*
X15852619Y-13097095D01*
X15833571Y-13106619D01*
X16014524Y-13049476D02*
X16138333Y-13049476D01*
X16071667Y-13125667D01*
X16100238Y-13125667D01*
X16119286Y-13135190D01*
X16128809Y-13144714D01*
X16138333Y-13163762D01*
X16138333Y-13211381D01*
X16128809Y-13230428D01*
X16119286Y-13239952D01*
X16100238Y-13249476D01*
X16043095Y-13249476D01*
X16024048Y-13239952D01*
X16014524Y-13230428D01*
X16376428Y-13249476D02*
X16376428Y-13049476D01*
X16462143Y-13249476D02*
X16462143Y-13144714D01*
X16452619Y-13125667D01*
X16433571Y-13116143D01*
X16405000Y-13116143D01*
X16385952Y-13125667D01*
X16376428Y-13135190D01*
X16585952Y-13249476D02*
X16566905Y-13239952D01*
X16557381Y-13230428D01*
X16547857Y-13211381D01*
X16547857Y-13154238D01*
X16557381Y-13135190D01*
X16566905Y-13125667D01*
X16585952Y-13116143D01*
X16614524Y-13116143D01*
X16633571Y-13125667D01*
X16643095Y-13135190D01*
X16652619Y-13154238D01*
X16652619Y-13211381D01*
X16643095Y-13230428D01*
X16633571Y-13239952D01*
X16614524Y-13249476D01*
X16585952Y-13249476D01*
X16766905Y-13249476D02*
X16747857Y-13239952D01*
X16738333Y-13220905D01*
X16738333Y-13049476D01*
X16919286Y-13239952D02*
X16900238Y-13249476D01*
X16862143Y-13249476D01*
X16843095Y-13239952D01*
X16833571Y-13220905D01*
X16833571Y-13144714D01*
X16843095Y-13125667D01*
X16862143Y-13116143D01*
X16900238Y-13116143D01*
X16919286Y-13125667D01*
X16928810Y-13144714D01*
X16928810Y-13163762D01*
X16833571Y-13182809D01*
X17005000Y-13239952D02*
X17024048Y-13249476D01*
X17062143Y-13249476D01*
X17081190Y-13239952D01*
X17090714Y-13220905D01*
X17090714Y-13211381D01*
X17081190Y-13192333D01*
X17062143Y-13182809D01*
X17033571Y-13182809D01*
X17014524Y-13173286D01*
X17005000Y-13154238D01*
X17005000Y-13144714D01*
X17014524Y-13125667D01*
X17033571Y-13116143D01*
X17062143Y-13116143D01*
X17081190Y-13125667D01*
X17157381Y-13325667D02*
X17166905Y-13316143D01*
X17185952Y-13287571D01*
X17195476Y-13268524D01*
X17205000Y-13239952D01*
X17214524Y-13192333D01*
X17214524Y-13154238D01*
X17205000Y-13106619D01*
X17195476Y-13078048D01*
X17185952Y-13059000D01*
X17166905Y-13030428D01*
X17157381Y-13020905D01*
M02*
