G04 #@! TF.GenerationSoftware,KiCad,Pcbnew,6.0.11+dfsg-1~bpo11+1*
G04 #@! TF.CreationDate,2023-03-04T12:31:31-08:00*
G04 #@! TF.ProjectId,sx1280_breakout,73783132-3830-45f6-9272-65616b6f7574,rev?*
G04 #@! TF.SameCoordinates,Original*
G04 #@! TF.FileFunction,Legend,Bot*
G04 #@! TF.FilePolarity,Positive*
%FSLAX46Y46*%
G04 Gerber Fmt 4.6, Leading zero omitted, Abs format (unit mm)*
G04 Created by KiCad (PCBNEW 6.0.11+dfsg-1~bpo11+1) date 2023-03-04 12:31:31*
%MOMM*%
%LPD*%
G01*
G04 APERTURE LIST*
%ADD10C,0.300000*%
%ADD11C,3.200000*%
%ADD12R,1.700000X1.700000*%
%ADD13O,1.700000X1.700000*%
G04 APERTURE END LIST*
D10*
X150771428Y-105639642D02*
X150628571Y-105711071D01*
X150342857Y-105711071D01*
X150200000Y-105639642D01*
X150128571Y-105496785D01*
X150128571Y-105425357D01*
X150200000Y-105282500D01*
X150342857Y-105211071D01*
X150557142Y-105211071D01*
X150700000Y-105139642D01*
X150771428Y-104996785D01*
X150771428Y-104925357D01*
X150700000Y-104782500D01*
X150557142Y-104711071D01*
X150342857Y-104711071D01*
X150200000Y-104782500D01*
X149628571Y-105711071D02*
X148842857Y-104711071D01*
X149628571Y-104711071D02*
X148842857Y-105711071D01*
X147485714Y-105711071D02*
X148342857Y-105711071D01*
X147914285Y-105711071D02*
X147914285Y-104211071D01*
X148057142Y-104425357D01*
X148200000Y-104568214D01*
X148342857Y-104639642D01*
X146914285Y-104353928D02*
X146842857Y-104282500D01*
X146700000Y-104211071D01*
X146342857Y-104211071D01*
X146200000Y-104282500D01*
X146128571Y-104353928D01*
X146057142Y-104496785D01*
X146057142Y-104639642D01*
X146128571Y-104853928D01*
X146985714Y-105711071D01*
X146057142Y-105711071D01*
X145200000Y-104853928D02*
X145342857Y-104782500D01*
X145414285Y-104711071D01*
X145485714Y-104568214D01*
X145485714Y-104496785D01*
X145414285Y-104353928D01*
X145342857Y-104282500D01*
X145200000Y-104211071D01*
X144914285Y-104211071D01*
X144771428Y-104282500D01*
X144700000Y-104353928D01*
X144628571Y-104496785D01*
X144628571Y-104568214D01*
X144700000Y-104711071D01*
X144771428Y-104782500D01*
X144914285Y-104853928D01*
X145200000Y-104853928D01*
X145342857Y-104925357D01*
X145414285Y-104996785D01*
X145485714Y-105139642D01*
X145485714Y-105425357D01*
X145414285Y-105568214D01*
X145342857Y-105639642D01*
X145200000Y-105711071D01*
X144914285Y-105711071D01*
X144771428Y-105639642D01*
X144700000Y-105568214D01*
X144628571Y-105425357D01*
X144628571Y-105139642D01*
X144700000Y-104996785D01*
X144771428Y-104925357D01*
X144914285Y-104853928D01*
X143700000Y-104211071D02*
X143557142Y-104211071D01*
X143414285Y-104282500D01*
X143342857Y-104353928D01*
X143271428Y-104496785D01*
X143200000Y-104782500D01*
X143200000Y-105139642D01*
X143271428Y-105425357D01*
X143342857Y-105568214D01*
X143414285Y-105639642D01*
X143557142Y-105711071D01*
X143700000Y-105711071D01*
X143842857Y-105639642D01*
X143914285Y-105568214D01*
X143985714Y-105425357D01*
X144057142Y-105139642D01*
X144057142Y-104782500D01*
X143985714Y-104496785D01*
X143914285Y-104353928D01*
X143842857Y-104282500D01*
X143700000Y-104211071D01*
X142914285Y-105853928D02*
X141771428Y-105853928D01*
X141414285Y-105711071D02*
X141414285Y-104211071D01*
X141414285Y-104782500D02*
X141271428Y-104711071D01*
X140985714Y-104711071D01*
X140842857Y-104782500D01*
X140771428Y-104853928D01*
X140700000Y-104996785D01*
X140700000Y-105425357D01*
X140771428Y-105568214D01*
X140842857Y-105639642D01*
X140985714Y-105711071D01*
X141271428Y-105711071D01*
X141414285Y-105639642D01*
X140057142Y-105711071D02*
X140057142Y-104711071D01*
X140057142Y-104996785D02*
X139985714Y-104853928D01*
X139914285Y-104782500D01*
X139771428Y-104711071D01*
X139628571Y-104711071D01*
X138557142Y-105639642D02*
X138700000Y-105711071D01*
X138985714Y-105711071D01*
X139128571Y-105639642D01*
X139200000Y-105496785D01*
X139200000Y-104925357D01*
X139128571Y-104782500D01*
X138985714Y-104711071D01*
X138700000Y-104711071D01*
X138557142Y-104782500D01*
X138485714Y-104925357D01*
X138485714Y-105068214D01*
X139200000Y-105211071D01*
X137200000Y-105711071D02*
X137200000Y-104925357D01*
X137271428Y-104782500D01*
X137414285Y-104711071D01*
X137700000Y-104711071D01*
X137842857Y-104782500D01*
X137200000Y-105639642D02*
X137342857Y-105711071D01*
X137700000Y-105711071D01*
X137842857Y-105639642D01*
X137914285Y-105496785D01*
X137914285Y-105353928D01*
X137842857Y-105211071D01*
X137700000Y-105139642D01*
X137342857Y-105139642D01*
X137200000Y-105068214D01*
X136485714Y-105711071D02*
X136485714Y-104211071D01*
X136342857Y-105139642D02*
X135914285Y-105711071D01*
X135914285Y-104711071D02*
X136485714Y-105282500D01*
X135057142Y-105711071D02*
X135200000Y-105639642D01*
X135271428Y-105568214D01*
X135342857Y-105425357D01*
X135342857Y-104996785D01*
X135271428Y-104853928D01*
X135200000Y-104782500D01*
X135057142Y-104711071D01*
X134842857Y-104711071D01*
X134700000Y-104782500D01*
X134628571Y-104853928D01*
X134557142Y-104996785D01*
X134557142Y-105425357D01*
X134628571Y-105568214D01*
X134700000Y-105639642D01*
X134842857Y-105711071D01*
X135057142Y-105711071D01*
X133271428Y-104711071D02*
X133271428Y-105711071D01*
X133914285Y-104711071D02*
X133914285Y-105496785D01*
X133842857Y-105639642D01*
X133700000Y-105711071D01*
X133485714Y-105711071D01*
X133342857Y-105639642D01*
X133271428Y-105568214D01*
X132771428Y-104711071D02*
X132200000Y-104711071D01*
X132557142Y-104211071D02*
X132557142Y-105496785D01*
X132485714Y-105639642D01*
X132342857Y-105711071D01*
X132200000Y-105711071D01*
X130700000Y-104711071D02*
X130342857Y-105711071D01*
X129985714Y-104711071D01*
X128628571Y-105711071D02*
X129485714Y-105711071D01*
X129057142Y-105711071D02*
X129057142Y-104211071D01*
X129200000Y-104425357D01*
X129342857Y-104568214D01*
X129485714Y-104639642D01*
X146628571Y-108054642D02*
X146485714Y-108126071D01*
X146200000Y-108126071D01*
X146057142Y-108054642D01*
X145985714Y-107911785D01*
X145985714Y-107840357D01*
X146057142Y-107697500D01*
X146200000Y-107626071D01*
X146414285Y-107626071D01*
X146557142Y-107554642D01*
X146628571Y-107411785D01*
X146628571Y-107340357D01*
X146557142Y-107197500D01*
X146414285Y-107126071D01*
X146200000Y-107126071D01*
X146057142Y-107197500D01*
X145485714Y-107126071D02*
X145128571Y-108126071D01*
X144771428Y-107126071D02*
X145128571Y-108126071D01*
X145271428Y-108483214D01*
X145342857Y-108554642D01*
X145485714Y-108626071D01*
X144200000Y-107126071D02*
X144200000Y-108126071D01*
X144200000Y-107268928D02*
X144128571Y-107197500D01*
X143985714Y-107126071D01*
X143771428Y-107126071D01*
X143628571Y-107197500D01*
X143557142Y-107340357D01*
X143557142Y-108126071D01*
X142200000Y-108126071D02*
X142200000Y-107340357D01*
X142271428Y-107197500D01*
X142414285Y-107126071D01*
X142700000Y-107126071D01*
X142842857Y-107197500D01*
X142200000Y-108054642D02*
X142342857Y-108126071D01*
X142700000Y-108126071D01*
X142842857Y-108054642D01*
X142914285Y-107911785D01*
X142914285Y-107768928D01*
X142842857Y-107626071D01*
X142700000Y-107554642D01*
X142342857Y-107554642D01*
X142200000Y-107483214D01*
X140842857Y-108054642D02*
X140985714Y-108126071D01*
X141271428Y-108126071D01*
X141414285Y-108054642D01*
X141485714Y-107983214D01*
X141557142Y-107840357D01*
X141557142Y-107411785D01*
X141485714Y-107268928D01*
X141414285Y-107197500D01*
X141271428Y-107126071D01*
X140985714Y-107126071D01*
X140842857Y-107197500D01*
X140200000Y-108126071D02*
X140200000Y-106626071D01*
X140057142Y-107554642D02*
X139628571Y-108126071D01*
X139628571Y-107126071D02*
X140200000Y-107697500D01*
X137914285Y-106768928D02*
X137842857Y-106697500D01*
X137700000Y-106626071D01*
X137342857Y-106626071D01*
X137200000Y-106697500D01*
X137128571Y-106768928D01*
X137057142Y-106911785D01*
X137057142Y-107054642D01*
X137128571Y-107268928D01*
X137985714Y-108126071D01*
X137057142Y-108126071D01*
X136128571Y-106626071D02*
X135985714Y-106626071D01*
X135842857Y-106697500D01*
X135771428Y-106768928D01*
X135700000Y-106911785D01*
X135628571Y-107197500D01*
X135628571Y-107554642D01*
X135700000Y-107840357D01*
X135771428Y-107983214D01*
X135842857Y-108054642D01*
X135985714Y-108126071D01*
X136128571Y-108126071D01*
X136271428Y-108054642D01*
X136342857Y-107983214D01*
X136414285Y-107840357D01*
X136485714Y-107554642D01*
X136485714Y-107197500D01*
X136414285Y-106911785D01*
X136342857Y-106768928D01*
X136271428Y-106697500D01*
X136128571Y-106626071D01*
X135057142Y-106768928D02*
X134985714Y-106697500D01*
X134842857Y-106626071D01*
X134485714Y-106626071D01*
X134342857Y-106697500D01*
X134271428Y-106768928D01*
X134200000Y-106911785D01*
X134200000Y-107054642D01*
X134271428Y-107268928D01*
X135128571Y-108126071D01*
X134200000Y-108126071D01*
X133700000Y-106626071D02*
X132771428Y-106626071D01*
X133271428Y-107197500D01*
X133057142Y-107197500D01*
X132914285Y-107268928D01*
X132842857Y-107340357D01*
X132771428Y-107483214D01*
X132771428Y-107840357D01*
X132842857Y-107983214D01*
X132914285Y-108054642D01*
X133057142Y-108126071D01*
X133485714Y-108126071D01*
X133628571Y-108054642D01*
X133700000Y-107983214D01*
%LPC*%
D11*
X154900000Y-120000000D03*
X124500000Y-120000000D03*
X154900000Y-91500000D03*
X124500000Y-91500000D03*
D12*
X132080000Y-91000000D03*
D13*
X134620000Y-91000000D03*
X137160000Y-91000000D03*
X139700000Y-91000000D03*
X142240000Y-91000000D03*
X144780000Y-91000000D03*
X147320000Y-91000000D03*
X154940000Y-111320000D03*
X154940000Y-108780000D03*
X154940000Y-106240000D03*
X154940000Y-103700000D03*
X154940000Y-101160000D03*
D12*
X154940000Y-98620000D03*
M02*
